<svg width="68" height="70" viewBox="0 0 68 70" fill="none" xmlns="http://www.w3.org/2000/svg">
<path d="M34.1831 27.1583C33.8655 27.1583 33.548 27.0902 33.2522 26.954C29.3362 25.1524 26.7051 20.2435 26.7051 14.7391C26.7051 10.1819 28.4569 6.04999 31.3911 3.68645C31.7268 3.41608 32.0083 3.04639 32.2048 2.6175L32.6665 1.61021C32.9484 0.995381 33.5294 0.613281 34.1827 0.613281C34.8361 0.613281 35.417 0.995245 35.699 1.61007L36.1605 2.61709C36.3571 3.04598 36.6385 3.41553 36.9743 3.68591C39.267 5.53284 40.8981 8.58377 41.4496 12.0564C41.5381 12.6138 41.1767 13.1406 40.6423 13.2328C40.1078 13.3252 39.603 12.9483 39.5145 12.3907C39.0433 9.42245 37.6804 6.83997 35.7756 5.30557C35.1983 4.84053 34.7194 4.21615 34.3911 3.4997L34.1827 3.04503L33.9741 3.50011C33.6458 4.21629 33.1671 4.84066 32.5896 5.30584C30.1697 7.25536 28.6663 10.8698 28.6663 14.739C28.6663 19.4456 30.8273 23.602 34.0435 25.0817C34.1321 25.1224 34.2337 25.1224 34.3223 25.0817C37.0004 23.8494 39.0034 20.6965 39.5496 16.8534C39.6291 16.2944 40.1292 15.909 40.6634 15.9914C41.1992 16.0742 41.5691 16.5945 41.4896 17.1535C40.8455 21.6854 38.4025 25.4406 35.1138 26.9539C34.8183 27.0902 34.5008 27.1583 34.1831 27.1583Z" fill="#222221"/>
<path d="M21.8184 32.6327C18.8994 32.6328 15.7509 31.4653 13.0967 29.2548C9.71164 26.4356 7.70893 22.4592 7.73953 18.6182C7.74358 18.1089 7.6476 17.6398 7.45447 17.2237L6.98086 16.2035C6.69607 15.59 6.77243 14.8779 7.18001 14.3452C7.58758 13.8125 8.23628 13.5775 8.87282 13.731L9.93118 13.9866C10.3627 14.0911 10.8224 14.0847 11.2975 13.9676C14.8816 13.085 19.0418 14.242 22.4272 17.0613C26.5505 20.4953 28.5865 25.7028 27.4933 30.0194C27.3282 30.6716 26.9048 31.2249 26.3318 31.5374C24.9803 32.2746 23.4343 32.6326 21.8184 32.6327ZM9.00188 15.8623L9.21972 16.3317C9.54557 17.0334 9.70732 17.8084 9.70078 18.635C9.67555 21.8049 11.4456 25.2614 14.3204 27.6554C17.846 30.5918 22.3078 31.4231 25.423 29.7239C25.5089 29.6771 25.5723 29.5942 25.597 29.4965C26.4948 25.9513 24.7292 21.5964 21.2035 18.6602C18.3287 16.266 14.7059 15.231 11.7479 15.9589C10.9771 16.1488 10.2169 16.1558 9.48869 15.9798L9.00188 15.8623Z" fill="#222221"/>
<path d="M12.1285 49.7225C9.11817 49.7226 6.31299 48.7763 4.23902 46.9909C3.91173 46.7092 3.50389 46.5049 3.05944 46.3998L2.01572 46.1532C1.37853 46.0026 0.892625 45.4962 0.747875 44.8315C0.603124 44.1667 0.83143 43.491 1.34388 43.068L2.1827 42.3753C2.53993 42.0802 2.82315 41.7121 3.00164 41.3106C4.56095 37.8017 8.03496 35.1041 12.2948 34.0945C17.4396 32.8748 22.6108 34.4637 25.1626 38.0482C25.5481 38.5896 25.6986 39.28 25.5751 39.9423C25.2952 41.4452 24.613 42.9437 23.6025 44.276C23.2663 44.7191 22.6498 44.7941 22.2249 44.4434C21.8002 44.0928 21.7285 43.4493 22.0645 43.0062C22.8812 41.9295 23.4295 40.735 23.6498 39.552C23.6683 39.4529 23.6458 39.3495 23.5881 39.2683C21.4922 36.3245 17.1283 35.0471 12.7293 36.0898C9.11254 36.9471 6.0669 39.2773 4.78088 42.1712C4.47412 42.8616 3.99646 43.4871 3.3998 43.98L3.02099 44.2926L3.49251 44.4039C4.2347 44.5794 4.92446 44.928 5.48711 45.4125C7.84549 47.4425 11.5571 48.1711 15.1736 47.3138C16.4883 47.0022 17.7284 46.5024 18.8596 45.8283C19.3298 45.5479 19.9288 45.7186 20.1975 46.2091C20.4662 46.6998 20.3028 47.3247 19.8324 47.6049C18.533 48.3794 17.1116 48.9527 15.608 49.309C14.4384 49.5866 13.2685 49.7224 12.1285 49.7225Z" fill="#222221"/>
<path d="M19.5491 69.8134C19.3006 69.8134 19.05 69.755 18.8144 69.6363C18.2261 69.3396 17.8623 68.7319 17.8651 68.0502L17.8695 66.9342C17.8695 66.9342 17.8695 66.9342 17.8695 66.9341C17.8715 66.4588 17.7724 65.9983 17.5829 65.6023C15.9272 62.1418 16.0738 57.6263 17.9751 53.5232C20.2713 48.5676 24.6914 45.343 28.9647 45.4983C29.6109 45.5219 30.222 45.83 30.6411 46.3437C33.415 49.7438 33.736 55.358 31.4396 60.3138C29.5384 64.4168 26.2376 67.3414 22.6097 68.1371C22.1945 68.2281 21.7871 68.4333 21.431 68.7301L20.5951 69.4274C20.2895 69.6824 19.9214 69.8134 19.5491 69.8134ZM19.8309 66.9428L19.8288 67.4467L20.2066 67.1318C20.8009 66.636 21.4925 66.2912 22.2064 66.1347C25.1983 65.4784 28.0597 62.9067 29.674 59.4233C31.6374 55.1858 31.426 50.4626 29.1477 47.67C29.0849 47.5931 28.9934 47.5468 28.8965 47.5433C25.3864 47.4144 21.7046 50.1765 19.7411 54.4137C18.1269 57.8974 17.9723 61.8343 19.338 64.6883C19.6637 65.3693 19.8342 66.149 19.8309 66.9428Z" fill="#222221"/>
<path d="M46.5374 32.6327C44.9212 32.6327 43.3757 32.2747 42.0241 31.5374C41.4511 31.2249 41.0277 30.6716 40.8625 30.0194C39.7694 25.7026 41.8053 20.4952 45.9287 17.0612C49.3138 14.2418 53.4741 13.0851 57.0584 13.9676C57.5333 14.0845 57.9929 14.0911 58.4246 13.9866H58.4247L59.483 13.7309C60.1196 13.577 60.7682 13.8125 61.1757 14.3452C61.5834 14.8779 61.6597 15.59 61.3749 16.2035L60.9013 17.2237C60.708 17.6399 60.6122 18.1092 60.6162 18.6182C60.6468 22.4593 58.6441 26.4357 55.259 29.2549C52.6051 31.465 49.456 32.6327 46.5374 32.6327ZM54.6545 15.73C52.1505 15.73 49.4192 16.7726 47.1523 18.6604C43.6268 21.5968 41.861 25.9516 42.7588 29.4969C42.7835 29.5946 42.8469 29.6775 42.9327 29.7242C46.0481 31.4235 50.5098 30.5919 54.0356 27.6557C56.9102 25.2616 58.6803 21.8051 58.6551 18.6352C58.6485 17.8089 58.8103 17.034 59.1363 16.332L59.3541 15.8624L58.8674 15.98C58.1394 16.1558 57.3791 16.149 56.608 15.9591C55.9822 15.805 55.3265 15.73 54.6545 15.73Z" fill="#222221"/>
<path d="M56.2291 49.7221C55.0889 49.7221 53.9196 49.5864 52.7493 49.3089C47.6042 48.0895 43.5988 44.3252 42.7824 39.9422C42.659 39.28 42.8094 38.5896 43.1948 38.0481C45.7465 34.4638 50.9182 32.8749 56.0627 34.0943C60.3225 35.1041 63.7965 37.8016 65.356 41.3103C65.5343 41.7119 65.8176 42.0801 66.1749 42.3752L67.0137 43.0678C67.526 43.4906 67.7545 44.1665 67.6099 44.8311C67.4651 45.4958 66.9793 46.0022 66.342 46.1528L65.2983 46.3994C64.854 46.5045 64.446 46.7088 64.1189 46.9904C62.0446 48.7757 59.2392 49.722 56.2291 49.7221ZM52.5958 35.7304C49.3237 35.7304 46.3784 37.0082 44.7694 39.268C44.7118 39.3491 44.6892 39.4526 44.7077 39.5519C45.3782 43.1517 48.7846 46.2709 53.1839 47.3136C56.8009 48.1709 60.5121 47.4422 62.8704 45.4122C63.433 44.9279 64.1228 44.5791 64.8651 44.4038L65.3365 44.2925L64.9578 43.9798C64.3612 43.4871 63.8835 42.8618 63.5767 42.1712C62.2906 39.2773 59.2451 36.9469 55.6283 36.0897C54.6063 35.8474 53.5861 35.7304 52.5958 35.7304ZM65.7965 44.6723H65.7979H65.7965Z" fill="#222221"/>
<path d="M48.8182 69.8093C48.4458 69.8093 48.078 69.6783 47.7719 69.423L46.9361 68.7259C46.58 68.429 46.1724 68.2239 45.7575 68.1329C42.1296 67.3372 38.8289 64.4125 36.9276 60.3096C34.6312 55.3539 34.9521 49.7397 37.7262 46.3395C38.1453 45.8258 38.7563 45.5176 39.4025 45.494C43.0725 45.3594 46.8859 47.7078 49.3576 51.6195C49.6557 52.0912 49.5307 52.7258 49.0786 53.0367C48.6265 53.3477 48.0181 53.2175 47.7201 52.7455C45.6219 49.425 42.4602 47.4289 39.4709 47.5389C39.374 47.5424 39.2825 47.5885 39.2196 47.6656C36.9412 50.4582 36.7298 55.1816 38.6933 59.4189C40.3075 62.9024 43.169 65.474 46.1609 66.1303C46.8747 66.2868 47.5662 66.6316 48.1606 67.1273L48.5384 67.4423L48.5363 66.9386C48.5333 66.1443 48.7037 65.3647 49.0295 64.6839C50.0739 62.5011 50.2459 59.637 49.5008 56.8259C49.3564 56.2814 49.6625 55.7178 50.1847 55.5672C50.7065 55.4166 51.2467 55.7362 51.391 56.2807C52.2635 59.5727 52.0422 62.9686 50.7841 65.5979C50.5947 65.9937 50.4955 66.4544 50.4974 66.93L50.502 68.0458C50.5048 68.7276 50.1409 69.3354 49.5526 69.6321C49.3175 69.7509 49.0669 69.8093 48.8182 69.8093Z" fill="#222221"/>
</svg>
