<svg width="66" height="69" viewBox="0 0 66 69" fill="none" xmlns="http://www.w3.org/2000/svg">
<path d="M32.9049 39.4793C35.3578 39.4793 37.3534 37.3975 37.3534 34.8385C37.3534 32.2796 35.3578 30.1978 32.9049 30.1978C31.5267 30.1978 30.2483 30.8497 29.3974 31.9865C29.0728 32.4203 29.1465 33.0466 29.5624 33.3853C29.9783 33.7241 30.5784 33.647 30.9032 33.2133C31.3894 32.5636 32.119 32.1911 32.9048 32.1911C34.3041 32.1911 35.4427 33.3788 35.4427 34.8387C35.4427 36.2985 34.3042 37.4862 32.9048 37.4862C32.1119 37.4862 31.3783 37.1082 30.8922 36.4492C30.5705 36.013 29.9705 35.9315 29.5524 36.2672C29.1343 36.6028 29.0562 37.2286 29.3779 37.6648C30.2289 38.8178 31.5142 39.4793 32.9049 39.4793V39.4793Z" fill="white"/>
<path d="M65.5106 34.8441C65.5073 34.4507 65.3831 33.8504 65.0139 33.3198C63.8866 31.7939 61.4024 28.9372 57.4311 26.9486C56.9556 26.7106 56.3848 26.9195 56.1564 27.4159C55.9282 27.9121 56.1287 28.5074 56.6044 28.7457C59.684 30.2876 61.7777 32.3986 62.9637 33.8476H57.9495C57.4218 33.8476 56.9942 34.2938 56.9942 34.8442C56.9942 35.3946 57.4218 35.8408 57.9495 35.8408H62.9552C61.339 37.8156 58.119 40.9288 53.1154 42.2573C52.3862 41.1515 51.5206 40.0513 50.4927 38.9787C48.4338 36.8308 46.2705 35.5723 44.3571 34.8385C46.2705 34.1047 48.434 32.8462 50.4927 30.6984C57.2364 23.6628 57.0376 15.4351 56.6388 12.2232C56.4927 11.2093 55.7779 10.2872 54.5799 10.0761C52.2215 9.75742 47.0393 9.56128 41.7116 12.6525C40.0395 6.53687 36.2426 2.85323 34.3596 1.3393C33.6425 0.745583 32.3678 0.605657 31.4476 1.33877C29.5642 2.8531 25.7672 6.53701 24.0951 12.6527C18.7671 9.56128 13.5848 9.75768 11.2257 10.0762C10.1539 10.2221 9.30746 11.105 9.16761 12.2241C8.86217 14.6846 8.67417 20.0909 11.6374 25.6494C5.77516 27.3937 2.24413 31.3551 0.792467 33.3202C0.131529 34.2153 0.131784 35.4645 0.792594 36.3572C2.24426 38.3223 5.77542 42.2835 11.6377 44.0278C8.67429 49.5867 8.8623 54.9929 9.16786 57.4538C9.30772 58.5721 10.154 59.455 11.2267 59.6009C11.8897 59.6905 12.7748 59.7703 13.8245 59.7703C16.509 59.7703 20.2642 59.2446 24.0947 57.0224C25.7664 63.1394 29.5641 66.8239 31.4479 68.3385C32.2473 68.9537 33.359 69.0714 34.359 68.3383C36.2427 66.8239 40.0403 63.1396 41.7121 57.0226C45.5426 59.2449 49.2977 59.7703 51.9824 59.7703C53.0317 59.7703 53.9179 59.6903 54.5808 59.6008C55.6527 59.455 56.4991 58.5721 56.6388 57.4538C56.6389 57.4535 56.6389 57.4531 56.6389 57.4528C56.9444 54.9927 57.1324 49.5866 54.1689 44.0277C60.0311 42.2834 63.5623 38.3223 65.0134 36.3579C65.2461 36.0466 65.5008 35.4415 65.5106 34.8441V34.8441ZM51.053 42.6811C50.1353 42.8168 49.1674 42.8924 48.1472 42.8924C43.9213 42.8924 40.9641 41.2313 39.2789 39.9074C40.0569 38.8356 40.658 37.4852 40.8467 35.957C42.9353 36.263 46.1521 37.269 49.1416 40.3879C49.8628 41.1406 50.496 41.9081 51.053 42.6811V42.6811ZM40.4208 53.7736C39.6799 53.1925 38.9442 52.5319 38.2227 51.7792C35.233 48.6603 34.2688 45.3042 33.9754 43.1253C35.2702 42.9333 36.5615 42.4467 37.762 41.4897C39.031 43.2477 40.6233 46.3328 40.6233 50.7416C40.6233 51.8061 40.5509 52.816 40.4208 53.7736V53.7736ZM25.1832 50.7417C25.1832 46.3328 26.7754 43.2478 28.0444 41.4898C29.0729 42.3021 30.3663 42.9284 31.831 43.1254C31.5377 45.3043 30.5734 48.6603 27.5837 51.7793C26.8622 52.5319 26.1267 53.1925 25.3856 53.7736C25.2556 52.816 25.1832 51.8061 25.1832 50.7417V50.7417ZM25.3856 15.904C26.1267 16.4851 26.8624 17.145 27.5837 17.8977C30.5734 21.0167 31.5376 24.3726 31.831 26.5515C30.5404 26.7401 29.2283 27.2397 28.0444 28.1872C26.7754 26.4291 25.1832 23.3441 25.1832 18.9352C25.1832 17.8708 25.2556 16.8613 25.3856 15.904V15.904ZM40.6233 18.935C40.6233 23.3439 39.031 26.4289 37.762 28.1869C36.7348 27.3755 35.4404 26.7483 33.9754 26.5513C34.2688 24.3724 35.233 21.0164 38.2227 17.8974C38.9442 17.1448 39.6798 16.4842 40.4208 15.903C40.5509 16.8607 40.6233 17.8706 40.6233 18.935ZM31.931 41.1249C29.6793 40.8333 27.3768 38.7108 26.9235 36.1215C26.1403 32.1099 29.1946 28.1978 33.3357 28.4883C36.7229 28.6196 39.7445 32.3875 38.8838 36.1169C38.338 39.221 35.1713 41.7556 31.931 41.1249ZM26.4813 29.8353C25.7275 30.8892 25.1451 32.2222 24.9598 33.7199C22.8713 33.4137 19.6543 32.4077 16.6648 29.2888C15.9433 28.5361 15.3102 27.7687 14.7532 26.9956C15.671 26.8599 16.6389 26.7843 17.6592 26.7843C21.8853 26.7843 24.8424 28.4454 26.5275 29.7693C26.5117 29.7911 26.4969 29.8135 26.4813 29.8353V29.8353ZM24.9713 36.035C25.1572 37.3505 25.634 38.6906 26.5275 39.9073C24.8424 41.2312 21.8853 42.8922 17.6592 42.8922C16.639 42.8922 15.6711 42.8166 14.7534 42.6809C15.3103 41.908 15.9435 41.1406 16.6646 40.3879C19.6531 37.2713 22.8705 36.2644 24.9598 35.9572C24.9632 35.9834 24.9678 36.009 24.9713 36.035ZM49.1415 29.2888C46.1521 32.4077 42.9351 33.4137 40.8466 33.7199C40.6661 32.3747 40.1872 31.0047 39.2788 29.7694C40.964 28.4455 43.9213 26.7845 48.1471 26.7845C49.1307 26.7845 50.1025 26.857 51.0517 26.9977C50.4951 27.7701 49.8623 28.5368 49.1415 29.2888V29.2888ZM53.4316 11.9562L49.461 16.0987C49.0879 16.4879 49.0879 17.119 49.461 17.5081C49.6476 17.7026 49.8921 17.8 50.1365 17.8C50.381 17.8 50.6255 17.7027 50.8121 17.5081L54.8286 13.3179C55.0312 15.8961 54.8826 20.5097 52.2224 25.1778C50.901 24.9217 49.5337 24.7911 48.1472 24.7911C45.2351 24.7911 42.8516 25.4978 41.0006 26.3909C41.8567 24.4598 42.534 21.9732 42.534 18.935C42.534 17.4182 42.4006 16.0014 42.1667 14.6815C46.5802 11.9452 50.9431 11.7576 53.4316 11.9562V11.9562ZM31.9533 3.47685V9.48262C31.9533 10.033 32.381 10.4792 32.9086 10.4792C33.4362 10.4792 33.8639 10.033 33.8639 9.48262V3.48655C35.7568 5.1727 38.7408 8.53184 40.0142 13.7516C38.9542 14.5124 37.8996 15.4157 36.8716 16.4882C34.8127 18.6361 33.6065 20.893 32.9031 22.8891C32.1998 20.893 30.9934 18.6361 28.9346 16.4882C27.9066 15.4157 26.852 14.5124 25.792 13.7516C27.0681 8.52161 30.0612 5.15968 31.9533 3.47685V3.47685ZM10.9846 13.2339L14.7674 17.1804C14.9539 17.3749 15.1985 17.4723 15.4429 17.4723C15.6873 17.4723 15.9319 17.375 16.1183 17.1804C16.4914 16.7912 16.4914 16.1601 16.1183 15.771L12.4564 11.9504C12.8675 11.9194 13.3265 11.8991 13.828 11.8991C16.3773 11.8991 19.9914 12.4212 23.6397 14.683C23.406 16.0025 23.2726 17.4188 23.2726 18.935C23.2726 21.9732 23.95 24.4598 24.8059 26.3907C22.9549 25.4978 20.5714 24.7911 17.6593 24.7911C16.2055 24.7911 14.8475 24.9304 13.5823 25.1743C10.8947 20.4563 10.7723 15.7937 10.9846 13.2339V13.2339ZM2.85132 35.8407H8.15448C8.68206 35.8407 9.10978 35.3945 9.10978 34.8441C9.10978 34.2937 8.68206 33.8474 8.15448 33.8474H2.84202C4.45507 31.8733 7.67773 28.7509 12.6907 27.4198C13.4199 28.5256 14.2858 29.6258 15.3139 30.6983C17.3733 32.8467 19.5373 34.1054 21.4511 34.839C19.5369 35.5731 17.3727 36.8313 15.3137 38.9787C14.2858 40.0512 13.4201 41.1513 12.691 42.2572C7.68792 40.9288 4.46793 37.8158 2.85132 35.8407V35.8407ZM12.275 57.7121L16.4402 53.3667C16.8133 52.9775 16.8133 52.3464 16.4402 51.9574C16.0673 51.5681 15.4624 51.5681 15.0893 51.9574L10.9699 56.2549C10.7796 53.6586 10.9596 49.1073 13.5825 44.5025C14.8475 44.7465 16.2055 44.8857 17.6592 44.8857C20.5714 44.8857 22.9549 44.1791 24.8058 43.2861C23.9497 45.2171 23.2725 47.7036 23.2725 50.7419C23.2725 52.2586 23.406 53.6754 23.6398 54.9953C19.1661 57.7688 14.7451 57.9236 12.275 57.7121V57.7121ZM33.8639 66.1901V60.1942C33.8639 59.6438 33.4362 59.1976 32.9086 59.1976C32.381 59.1976 31.9533 59.6438 31.9533 60.1942V66.1998C30.0609 64.5169 27.0677 61.1547 25.7919 55.9242C26.852 55.1634 27.9067 54.261 28.9347 53.1885C30.9936 51.0406 32.1999 48.7837 32.9033 46.7876C33.6067 48.7837 34.813 51.0406 36.8717 53.1885C37.8998 54.2611 38.9545 55.1634 40.0146 55.9243C38.7413 61.1442 35.7573 64.5035 33.8639 66.1901V66.1901ZM54.8423 56.1699L51.3289 52.5044C50.9557 52.1152 50.3509 52.1152 49.9778 52.5044C49.6048 52.8936 49.6048 53.5247 49.9778 53.9138L53.6119 57.7051C51.1572 57.9267 46.6886 57.7986 42.1666 54.9952C42.4006 53.6753 42.5339 52.2585 42.5339 50.7417C42.5339 47.7035 41.8566 45.217 41.0006 43.286C42.8516 44.1789 45.2351 44.8856 48.1472 44.8856C49.6009 44.8856 50.9589 44.7463 52.2239 44.5024C54.8186 49.0577 55.0226 53.5602 54.8423 56.1699V56.1699Z" fill="white"/>
</svg>
