<svg width="66" height="69" viewBox="0 0 66 69" fill="none" xmlns="http://www.w3.org/2000/svg">
<path d="M65.9795 34.8573C65.9795 28.1421 64.1062 21.6466 60.5617 16.0739C60.1731 15.4619 59.3826 15.2953 58.7964 15.7012C58.2103 16.1066 58.0501 16.9314 58.4392 17.5428C61.7056 22.679 63.432 28.6664 63.432 34.8573C63.432 47.5676 56.146 58.536 45.7021 63.4562C48.6346 60.2811 50.4402 55.9681 50.4402 51.2187C50.4402 41.4987 42.8796 33.5866 33.5716 33.5461C33.5069 33.5357 33.4402 33.5285 33.3725 33.5285C25.4362 33.5285 18.9796 26.7926 18.9796 18.513C18.9796 10.2334 25.4362 3.49745 33.3725 3.49745C38.9047 3.49745 44.311 5.07801 49.0078 8.06782C49.6078 8.45037 50.392 8.25261 50.7582 7.6261C51.1248 6.99958 50.9353 6.18154 50.3347 5.79951C45.2384 2.55483 39.3729 0.839844 33.3725 0.839844C24.6631 0.839844 16.4745 4.37831 10.3159 10.8033C4.15737 17.2283 0.765625 25.771 0.765625 34.8573C0.765625 43.9435 4.15737 52.4863 10.3159 58.9112C16.4745 65.3362 24.6631 68.8747 33.3725 68.8747C33.4084 68.8747 33.4442 68.8736 33.4805 68.8731C33.487 68.8736 33.4934 68.8742 33.4999 68.8742C33.6586 68.8742 33.8164 68.8716 33.9741 68.8669C42.4587 68.7081 50.4124 65.1883 56.4291 58.9112C62.5877 52.4863 65.9795 43.9435 65.9795 34.8573V34.8573ZM3.31304 34.8573C3.31304 22.0514 10.71 11.0151 21.2793 6.15039C18.2831 9.34005 16.4322 13.7049 16.4322 18.513C16.4322 28.233 23.9929 36.1445 33.3009 36.185C33.3656 36.1959 33.4322 36.2032 33.4999 36.2032C41.4362 36.2032 47.8928 42.9386 47.8928 51.2187C47.8928 59.0997 42.0422 65.5823 34.6338 66.1875C34.2154 66.2057 33.7955 66.2171 33.3725 66.2171C16.7974 66.2171 3.31304 52.1494 3.31304 34.8573V34.8573Z" fill="white"/>
<path d="M54.4201 12.4657C54.6679 12.7195 54.9903 12.8456 55.3117 12.8456C55.6421 12.8456 55.972 12.7128 56.2212 12.4475C56.7138 11.9233 56.7064 11.0819 56.2038 10.568L56.163 10.5265C55.6595 10.0141 54.853 10.0245 54.3619 10.5498C53.8709 11.0751 53.8808 11.916 54.3838 12.4288L54.4201 12.4657Z" fill="white"/>
<path d="M27.2754 18.5165C27.2754 22.0336 30.0178 24.8947 33.3892 24.8947C36.76 24.8947 39.503 22.0336 39.503 18.5165C39.503 14.9993 36.76 12.1382 33.3892 12.1382C30.0178 12.1382 27.2754 14.9993 27.2754 18.5165V18.5165ZM36.9556 18.5165C36.9556 20.5678 35.3555 22.2371 33.3892 22.2371C31.4224 22.2371 29.8228 20.5678 29.8228 18.5165C29.8228 16.4651 31.4224 14.7958 33.3892 14.7958C35.3555 14.7958 36.9556 16.4651 36.9556 18.5165Z" fill="white"/>
<path d="M39.503 51.2179C39.503 47.7007 36.76 44.8396 33.3892 44.8396C30.0178 44.8396 27.2754 47.7007 27.2754 51.2179C27.2754 54.7345 30.0178 57.5961 33.3892 57.5961C36.76 57.5961 39.503 54.7345 39.503 51.2179ZM29.8228 51.2179C29.8228 49.166 31.4224 47.4972 33.3892 47.4972C35.3555 47.4972 36.9556 49.166 36.9556 51.2179C36.9556 53.2692 35.3555 54.9385 33.3892 54.9385C31.4224 54.9385 29.8228 53.2692 29.8228 51.2179Z" fill="white"/>
</svg>
