<svg width="66" height="69" viewBox="0 0 66 69" fill="none" xmlns="http://www.w3.org/2000/svg">
<path d="M65.6845 34.4705C65.6845 27.7554 63.8113 21.2598 60.2668 15.6872C59.8782 15.0752 59.0876 14.9086 58.5015 15.3145C57.9154 15.7199 57.7552 16.5446 58.1443 17.1561C61.4107 22.2923 63.1371 28.2797 63.1371 34.4705C63.1371 47.1809 55.8511 58.1492 45.4072 63.0695C48.3397 59.8943 50.1453 55.5814 50.1453 50.832C50.1453 41.112 42.5847 33.1999 33.2766 33.1594C33.212 33.149 33.1453 33.1417 33.0776 33.1417C25.1413 33.1417 18.6847 26.4058 18.6847 18.1262C18.6847 9.84664 25.1413 3.11074 33.0776 3.11074C38.6098 3.11074 44.0161 4.69129 48.7129 7.6811C49.3129 8.06365 50.097 7.86589 50.4632 7.23938C50.8299 6.61287 50.6404 5.79482 50.0398 5.41279C44.9435 2.16811 39.078 0.453125 33.0776 0.453125C24.3681 0.453125 16.1796 3.99159 10.021 10.4166C3.86245 16.8416 0.470703 25.3843 0.470703 34.4705C0.470703 43.5568 3.86245 52.0995 10.021 58.5245C16.1796 64.9495 24.3681 68.488 33.0776 68.488C33.1134 68.488 33.1493 68.4869 33.1856 68.4864C33.1921 68.4869 33.1985 68.4874 33.205 68.4874C33.3637 68.4874 33.5214 68.4849 33.6791 68.4802C42.1637 68.3214 50.1174 64.8016 56.1342 58.5245C62.2928 52.0995 65.6845 43.5568 65.6845 34.4705ZM3.01812 34.4705C3.01812 21.6647 10.4151 10.6283 20.9844 5.76368C17.9882 8.95333 16.1373 13.3181 16.1373 18.1262C16.1373 27.8462 23.698 35.7578 33.006 35.7983C33.0707 35.8092 33.1373 35.8165 33.205 35.8165C41.1413 35.8165 47.5979 42.5519 47.5979 50.832C47.5979 58.7129 41.7473 65.1955 34.3389 65.8008C33.9205 65.8189 33.5005 65.8304 33.0776 65.8304C16.5025 65.8304 3.01812 51.7627 3.01812 34.4705Z" fill="#222221"/>
<path d="M54.1252 12.079C54.373 12.3328 54.6954 12.4589 55.0168 12.4589C55.3472 12.4589 55.6771 12.326 55.9263 12.0608C56.4189 11.5365 56.4114 10.6951 55.9089 10.1813L55.8681 10.1397C55.3646 9.62742 54.5581 9.6378 54.067 10.1631C53.5759 10.6884 53.5859 11.5293 54.0889 12.0421L54.1252 12.079Z" fill="#222221"/>
<path d="M26.9805 18.1297C26.9805 21.6469 29.7229 24.508 33.0943 24.508C36.4651 24.508 39.2081 21.6469 39.2081 18.1297C39.2081 14.6125 36.4651 11.7515 33.0943 11.7515C29.7229 11.7515 26.9805 14.6125 26.9805 18.1297ZM36.6606 18.1297C36.6606 20.1811 35.0606 21.8504 33.0943 21.8504C31.1275 21.8504 29.5279 20.1811 29.5279 18.1297C29.5279 16.0784 31.1275 14.4091 33.0943 14.4091C35.0606 14.4091 36.6606 16.0784 36.6606 18.1297Z" fill="#222221"/>
<path d="M39.2081 50.8311C39.2081 47.314 36.4651 44.4529 33.0943 44.4529C29.7229 44.4529 26.9805 47.314 26.9805 50.8311C26.9805 54.3478 29.7229 57.2094 33.0943 57.2094C36.4651 57.2094 39.2081 54.3478 39.2081 50.8311ZM29.5279 50.8311C29.5279 48.7793 31.1275 47.1105 33.0943 47.1105C35.0606 47.1105 36.6606 48.7793 36.6606 50.8311C36.6606 52.8825 35.0606 54.5518 33.0943 54.5518C31.1275 54.5518 29.5279 52.8825 29.5279 50.8311Z" fill="#222221"/>
</svg>
