<svg width="56" height="70" viewBox="0 0 56 70" fill="none" xmlns="http://www.w3.org/2000/svg">
<path d="M23.1218 55.9007H19.1784C14.3038 55.9007 10.338 51.7628 10.338 46.6774V41.13C10.338 40.3802 9.75499 39.7725 9.03676 39.7725H4.08795L6.83887 33.1794H20.7028C21.4215 33.1794 22.004 32.5717 22.004 31.8219C22.004 31.0726 21.4215 30.4644 20.7028 30.4644H5.98594C5.46849 30.4644 4.99984 30.7852 4.79296 31.2799L0.909037 40.5881C0.733673 41.0075 0.773321 41.4912 1.01375 41.874C1.25417 42.2569 1.66335 42.4876 2.10202 42.4876H7.73551V46.6774C7.73551 53.2604 12.8688 58.6158 19.1784 58.6158H21.8205V68.1493C21.8205 68.8991 22.403 69.5068 23.1218 69.5068C23.8405 69.5068 24.423 68.8991 24.423 68.1493V57.2582C24.423 56.5084 23.8405 55.9007 23.1218 55.9007Z" fill="white"/>
<path d="M27.0747 30.4644C26.7326 30.4644 26.3966 30.6097 26.1547 30.8621C25.9127 31.115 25.7734 31.465 25.7734 31.8219C25.7734 32.1804 25.9127 32.5293 26.1547 32.7833C26.3966 33.0357 26.7326 33.1794 27.0747 33.1794C27.4168 33.1794 27.7528 33.0357 27.9947 32.7833C28.2367 32.5293 28.3759 32.1804 28.3759 31.8219C28.3759 31.465 28.2367 31.115 27.9947 30.8621C27.7528 30.6097 27.4168 30.4644 27.0747 30.4644Z" fill="white"/>
<path d="M52.0582 30.4644H33.5571C32.8384 30.4644 32.2559 31.0726 32.2559 31.8219C32.2559 32.5717 32.8384 33.1794 33.5571 33.1794H50.756L50.7336 68.1482C50.7331 68.898 51.3156 69.5063 52.0338 69.5068H52.0348C52.7531 69.5068 53.3356 68.8996 53.3361 68.1503L53.3595 31.823C53.3595 31.4629 53.2222 31.1171 52.9782 30.8626C52.7343 30.6081 52.4034 30.4644 52.0582 30.4644V30.4644Z" fill="white"/>
<path d="M54.3862 9.62757C53.8724 9.12539 52.9534 8.53995 51.5047 8.59987C49.2621 8.69321 48.1906 10.2761 47.4906 11.4905C46.1299 8.01762 43.5 5.04694 39.7736 2.80595C36.4122 0.784487 33.3513 0.0627645 33.2227 0.0330684C32.7189 -0.083595 32.1974 0.121096 31.8919 0.555402C31.587 0.989178 31.5559 1.56984 31.8137 2.03597C31.9468 2.27725 34.5717 7.0053 37.9676 11.395C36.272 11.4746 34.6007 12.0314 33.0178 13.0575C31.006 14.3609 29.8384 15.981 29.7896 16.0488C29.4928 16.4651 29.449 17.0214 29.6773 17.4822C29.9055 17.9436 30.3655 18.2267 30.8621 18.2167C33.4834 18.1557 36.5388 18.2612 38.202 18.5072C35.4821 21.8035 30.1917 23.3424 30.1327 23.3594C29.5853 23.5142 29.1969 24.0212 29.173 24.613C29.1491 25.2043 29.4958 25.7436 30.029 25.9456C30.2389 26.0251 33.1439 27.0942 37.1752 27.0942C40.2845 27.0942 44.0647 26.4579 47.7941 24.2402C50.8749 22.408 51.8666 19.5371 52.6636 17.2303C53.3798 15.1585 53.761 14.2941 54.6623 14.0836C55.2692 13.942 55.6951 13.3725 55.6789 12.7239C55.6748 12.532 55.598 10.8117 54.3862 9.62757V9.62757ZM50.2156 16.3097C49.4964 18.3922 48.7522 20.5457 46.5056 21.8815C42.3619 24.3452 38.0586 24.5557 35.0256 24.2466C37.3124 23.0455 39.9505 21.1799 41.3539 18.521C41.5435 18.162 41.5674 17.733 41.419 17.3533C41.0225 16.3384 39.9459 15.7503 35.4007 15.5514C34.9844 15.5334 34.5717 15.5201 34.1737 15.5106C35.756 14.4288 38.0657 13.5411 40.8228 14.5439C41.39 14.7502 42.0188 14.5248 42.3446 13.9982C42.6704 13.4716 42.6079 12.7807 42.1942 12.3267C39.7818 9.6806 37.4965 6.29842 35.9675 3.86122C39.3858 5.38209 44.3946 8.56169 45.6628 14.4479C45.7385 14.7989 45.9449 15.1044 46.2362 15.2969C46.5279 15.4894 46.8807 15.553 47.2177 15.4745C48.4193 15.1929 49.0232 14.1234 49.5554 13.1805C50.2136 12.0149 50.6335 11.3531 51.6084 11.3128C52.3739 11.28 52.6519 11.5907 52.8212 11.8977C52.8303 11.9147 52.8395 11.9322 52.8481 11.9492C51.4066 12.8639 50.8032 14.6102 50.2156 16.3097Z" fill="white"/>
<path d="M1.40071 24.6755C1.60199 24.8102 5.37307 27.2776 10.4876 27.2776C11.9606 27.2776 13.546 27.0724 15.1883 26.548C17.8905 25.6857 19.1785 23.5757 20.1194 22.0347C20.922 20.7196 21.3042 20.1834 21.8572 20.1834H21.8598C22.4809 20.1834 23.0157 19.7253 23.1361 19.0895C23.1661 18.932 23.406 17.514 22.6222 16.3107C22.2868 15.7958 21.6351 15.1335 20.4391 14.9049C18.8959 14.6101 17.7365 15.3578 16.8042 15.9586C15.8868 16.5494 15.3307 16.8755 14.5616 16.6888C14.4483 16.6613 13.3874 16.3097 11.094 12.4852C9.81714 10.3561 8.83409 8.26362 8.82392 8.24294C8.65212 7.87545 8.33036 7.60818 7.94863 7.51644C7.56639 7.42364 7.16534 7.51644 6.85579 7.76727C6.76073 7.84416 4.52167 9.69699 4.29904 13.0293C4.12774 15.5901 5.16721 18.2452 7.39153 20.9375C5.63231 21.8406 3.11368 22.1439 2.06811 22.1747C1.49627 22.1906 1.00169 22.5931 0.848694 23.1679C0.695187 23.7422 0.918839 24.3542 1.40071 24.6755ZM11.3797 20.6464C11.7014 19.9756 11.4407 19.16 10.7982 18.8248C10.2822 18.556 9.67838 18.6774 9.29308 19.0815C7.59435 17.0038 6.78767 15.0497 6.89187 13.2616C6.93813 12.4757 7.15772 11.8176 7.41847 11.2985C7.81546 12.0557 8.31613 12.971 8.87628 13.9064C11.5093 18.302 13.0459 19.1085 13.9725 19.3334C15.8232 19.782 17.1809 18.907 18.1721 18.268C18.964 17.7574 19.4372 17.4731 19.9699 17.5755C20.0767 17.5956 20.2764 17.6338 20.4223 17.7897C19.2888 18.3407 18.5746 19.5105 17.924 20.5764C17.0818 21.9557 16.2105 23.3821 14.4269 23.9517C11.5957 24.8558 8.92609 24.6076 6.86036 24.071C8.68058 23.4723 10.5216 22.4372 11.3797 20.6464Z" fill="white"/>
</svg>
