<svg width="56" height="71" viewBox="0 0 56 71" fill="none" xmlns="http://www.w3.org/2000/svg">
<path d="M22.7839 56.514H18.8405C13.9659 56.514 10.0001 52.3761 10.0001 47.2907V41.7433C10.0001 40.9935 9.41709 40.3858 8.69887 40.3858H3.75006L6.50098 33.7927H20.3649C21.0836 33.7927 21.6661 33.185 21.6661 32.4352C21.6661 31.6859 21.0836 31.0776 20.3649 31.0776H5.64805C5.1306 31.0776 4.66195 31.3985 4.45507 31.8932L0.571146 41.2014C0.395783 41.6208 0.43543 42.1044 0.675856 42.4873C0.916282 42.8702 1.32546 43.1009 1.76413 43.1009H7.39762V47.2907C7.39762 53.8737 12.5309 59.229 18.8405 59.229H21.4826V68.7626C21.4826 69.5124 22.0651 70.1201 22.7839 70.1201C23.5026 70.1201 24.0851 69.5124 24.0851 68.7626V57.8715C24.0851 57.1217 23.5026 56.514 22.7839 56.514Z" fill="white"/>
<path d="M26.7368 31.0776C26.3947 31.0776 26.0587 31.2229 25.8168 31.4754C25.5748 31.7283 25.4355 32.0783 25.4355 32.4352C25.4355 32.7936 25.5748 33.1426 25.8168 33.3966C26.0587 33.649 26.3947 33.7927 26.7368 33.7927C27.0789 33.7927 27.4149 33.649 27.6568 33.3966C27.8988 33.1426 28.038 32.7936 28.038 32.4352C28.038 32.0783 27.8988 31.7283 27.6568 31.4754C27.4149 31.2229 27.0789 31.0776 26.7368 31.0776Z" fill="white"/>
<path d="M51.7203 31.0776H33.2192C32.5005 31.0776 31.918 31.6859 31.918 32.4352C31.918 33.185 32.5005 33.7927 33.2192 33.7927H50.4181L50.3957 68.7615C50.3952 69.5113 50.9777 70.1196 51.6959 70.1201H51.6969C52.4152 70.1201 52.9977 69.5129 52.9982 68.7636L53.0216 32.4362C53.0216 32.0762 52.8843 31.7304 52.6404 31.4759C52.3964 31.2213 52.0655 31.0776 51.7203 31.0776V31.0776Z" fill="white"/>
<path d="M54.0484 10.2409C53.5345 9.73867 52.6155 9.15323 51.1668 9.21316C48.9242 9.30649 47.8527 10.8894 47.1528 12.1038C45.792 8.6309 43.1621 5.66022 39.4357 3.41923C36.0744 1.39777 33.0134 0.676046 32.8848 0.64635C32.381 0.529686 31.8595 0.734378 31.554 1.16868C31.2491 1.60246 31.2181 2.18313 31.4758 2.64925C31.6089 2.89053 34.2338 7.61858 37.6298 12.0083C35.9341 12.0878 34.2628 12.6447 32.6799 13.6708C30.6681 14.9742 29.5005 16.5942 29.4517 16.6621C29.1549 17.0784 29.1112 17.6347 29.3394 18.0955C29.5676 18.5568 30.0276 18.84 30.5242 18.8299C33.1455 18.7689 36.2009 18.8745 37.8641 19.1205C35.1442 22.4168 29.8538 23.9557 29.7948 23.9727C29.2474 24.1275 28.859 24.6345 28.8351 25.2263C28.8113 25.8175 29.1579 26.3568 29.6911 26.5589C29.9011 26.6384 32.806 27.7075 36.8373 27.7075C39.9466 27.7075 43.7268 27.0711 47.4562 24.8535C50.537 23.0213 51.5287 20.1504 52.3257 17.8436C53.0419 15.7718 53.4231 14.9074 54.3244 14.6969C54.9313 14.5553 55.3572 13.9857 55.341 13.3372C55.3369 13.1452 55.2601 11.425 54.0484 10.2409V10.2409ZM49.8778 16.923C49.1585 19.0055 48.4144 21.159 46.1677 22.4948C42.024 24.9585 37.7207 25.169 34.6877 24.8598C36.9746 23.6587 39.6126 21.7932 41.0161 19.1343C41.2056 18.7753 41.2295 18.3463 41.0811 17.9666C40.6846 16.9517 39.6081 16.3636 35.0628 16.1647C34.6465 16.1467 34.2338 16.1334 33.8358 16.1239C35.4181 15.0421 37.7279 14.1544 40.4849 15.1572C41.0521 15.3634 41.6809 15.1381 42.0067 14.6115C42.3325 14.0849 42.27 13.3939 41.8563 12.94C39.4439 10.2939 37.1586 6.9117 35.6296 4.4745C39.0479 5.99537 44.0567 9.17498 45.3249 15.0612C45.4006 15.4122 45.607 15.7177 45.8983 15.9102C46.19 16.1027 46.5428 16.1663 46.8798 16.0878C48.0814 15.8062 48.6853 14.7366 49.2175 13.7938C49.8757 12.6282 50.2956 11.9664 51.2705 11.9261C52.036 11.8932 52.314 12.204 52.4833 12.511C52.4925 12.528 52.5016 12.5455 52.5102 12.5625C51.0687 13.4772 50.4654 15.2234 49.8778 16.923Z" fill="white"/>
<path d="M1.06282 25.2888C1.2641 25.4235 5.03518 27.8909 10.1497 27.8909C11.6228 27.8909 13.2081 27.6857 14.8505 27.1612C17.5526 26.299 18.8406 24.189 19.7815 22.648C20.5841 21.3328 20.9663 20.7967 21.5194 20.7967H21.5219C22.143 20.7967 22.6778 20.3385 22.7982 19.7027C22.8282 19.5452 23.0681 18.1272 22.2843 16.924C21.9489 16.4091 21.2972 15.7468 20.1012 15.5182C18.558 15.2234 17.3986 15.9711 16.4663 16.5719C15.5489 17.1627 14.9928 17.4888 14.2237 17.3021C14.1104 17.2745 13.0496 16.923 10.7561 13.0985C9.47925 10.9694 8.4962 8.8769 8.48603 8.85622C8.31423 8.48873 7.99247 8.22147 7.61074 8.12973C7.2285 8.03693 6.82745 8.12973 6.51789 8.38055C6.42284 8.45744 4.18378 10.3103 3.96114 13.6426C3.78985 16.2034 4.82932 18.8585 7.05364 21.5508C5.29442 22.4539 2.77579 22.7572 1.73022 22.788C1.15838 22.8039 0.663802 23.2063 0.510804 23.7812C0.357297 24.3555 0.580949 24.9674 1.06282 25.2888ZM11.0418 21.2597C11.3635 20.5888 11.1028 19.7733 10.4603 19.4381C9.94435 19.1693 9.34049 19.2907 8.95519 19.6948C7.25646 17.6171 6.44978 15.663 6.55398 13.8749C6.60024 13.089 6.81982 12.4309 7.08058 11.9117C7.47757 12.669 7.97824 13.5843 8.53839 14.5197C11.1714 18.9153 12.708 19.7218 13.6346 19.9467C15.4853 20.3953 16.843 19.5203 17.8342 18.8813C18.6261 18.3707 19.0993 18.0864 19.632 18.1888C19.7388 18.2089 19.9385 18.2471 20.0844 18.403C18.9509 18.954 18.2368 20.1238 17.5861 21.1897C16.7439 22.5689 15.8727 23.9954 14.089 24.5649C11.2578 25.4691 8.5882 25.2209 6.52247 24.6843C8.34269 24.0856 10.1838 23.0504 11.0418 21.2597Z" fill="white"/>
</svg>
