<svg width="56" height="71" viewBox="0 0 56 71" fill="none" xmlns="http://www.w3.org/2000/svg">
<path d="M22.8268 56.514H18.8834C14.0088 56.514 10.0431 52.3761 10.0431 47.2907V41.7433C10.0431 40.9935 9.46006 40.3858 8.74184 40.3858H3.79302L6.54395 33.7927H20.4078C21.1266 33.7927 21.7091 33.185 21.7091 32.4352C21.7091 31.6859 21.1266 31.0776 20.4078 31.0776H5.69102C5.17357 31.0776 4.70491 31.3985 4.49804 31.8932L0.614115 41.2014C0.438751 41.6208 0.478399 42.1044 0.718825 42.4873C0.959251 42.8702 1.36843 43.1009 1.8071 43.1009H7.44059V47.2907C7.44059 53.8737 12.5739 59.229 18.8834 59.229H21.5256V68.7626C21.5256 69.5124 22.1081 70.1201 22.8268 70.1201C23.5456 70.1201 24.1281 69.5124 24.1281 68.7626V57.8715C24.1281 57.1217 23.5456 56.514 22.8268 56.514Z" fill="black"/>
<path d="M26.7798 31.0776C26.4377 31.0776 26.1017 31.2229 25.8597 31.4754C25.6178 31.7283 25.4785 32.0783 25.4785 32.4352C25.4785 32.7936 25.6178 33.1426 25.8597 33.3966C26.1017 33.649 26.4377 33.7927 26.7798 33.7927C27.1218 33.7927 27.4578 33.649 27.6998 33.3966C27.9417 33.1426 28.081 32.7936 28.081 32.4352C28.081 32.0783 27.9417 31.7283 27.6998 31.4754C27.4578 31.2229 27.1218 31.0776 26.7798 31.0776Z" fill="black"/>
<path d="M51.7633 31.0776H33.2622C32.5434 31.0776 31.9609 31.6859 31.9609 32.4352C31.9609 33.185 32.5434 33.7927 33.2622 33.7927H50.461L50.4387 68.7615C50.4382 69.5113 51.0207 70.1196 51.7389 70.1201H51.7399C52.4581 70.1201 53.0407 69.5129 53.0412 68.7636L53.0645 32.4362C53.0645 32.0762 52.9273 31.7304 52.6833 31.4759C52.4393 31.2213 52.1084 31.0776 51.7633 31.0776V31.0776Z" fill="black"/>
<path d="M54.0913 10.2409C53.5774 9.73867 52.6584 9.15323 51.2098 9.21316C48.9672 9.30649 47.8957 10.8894 47.1957 12.1038C45.835 8.6309 43.2051 5.66022 39.4787 3.41923C36.1173 1.39777 33.0563 0.676046 32.9277 0.64635C32.424 0.529686 31.9025 0.734378 31.597 1.16868C31.292 1.60246 31.261 2.18313 31.5187 2.64925C31.6519 2.89053 34.2768 7.61858 37.6727 12.0083C35.977 12.0878 34.3057 12.6447 32.7229 13.6708C30.711 14.9742 29.5435 16.5942 29.4947 16.6621C29.1978 17.0784 29.1541 17.6347 29.3823 18.0955C29.6106 18.5568 30.0706 18.84 30.5672 18.8299C33.1885 18.7689 36.2439 18.8745 37.9071 19.1205C35.1871 22.4168 29.8967 23.9557 29.8378 23.9727C29.2903 24.1275 28.902 24.6345 28.8781 25.2263C28.8542 25.8175 29.2009 26.3568 29.7341 26.5589C29.944 26.6384 32.849 27.7075 36.8803 27.7075C39.9896 27.7075 43.7698 27.0711 47.4992 24.8535C50.58 23.0213 51.5717 20.1504 52.3687 17.8436C53.0849 15.7718 53.4661 14.9074 54.3673 14.6969C54.9742 14.5553 55.4002 13.9857 55.3839 13.3372C55.3799 13.1452 55.3031 11.425 54.0913 10.2409V10.2409ZM49.9207 16.923C49.2015 19.0055 48.4573 21.159 46.2106 22.4948C42.067 24.9585 37.7637 25.169 34.7307 24.8598C37.0175 23.6587 39.6556 21.7932 41.059 19.1343C41.2486 18.7753 41.2725 18.3463 41.1241 17.9666C40.7276 16.9517 39.651 16.3636 35.1058 16.1647C34.6895 16.1467 34.2768 16.1334 33.8788 16.1239C35.4611 15.0421 37.7708 14.1544 40.5278 15.1572C41.0951 15.3634 41.7239 15.1381 42.0497 14.6115C42.3755 14.0849 42.313 13.3939 41.8992 12.94C39.4868 10.2939 37.2015 6.9117 35.6726 4.4745C39.0909 5.99537 44.0997 9.17498 45.3679 15.0612C45.4436 15.4122 45.65 15.7177 45.9412 15.9102C46.233 16.1027 46.5858 16.1663 46.9228 16.0878C48.1244 15.8062 48.7283 14.7366 49.2604 13.7938C49.9187 12.6282 50.3385 11.9664 51.3135 11.9261C52.079 11.8932 52.357 12.204 52.5263 12.511C52.5354 12.528 52.5446 12.5455 52.5532 12.5625C51.1117 13.4772 50.5083 15.2234 49.9207 16.923Z" fill="black"/>
<path d="M1.10579 25.2888C1.30707 25.4235 5.07815 27.8909 10.1927 27.8909C11.6657 27.8909 13.2511 27.6857 14.8934 27.1612C17.5956 26.299 18.8836 24.189 19.8244 22.648C20.6271 21.3328 21.0093 20.7967 21.5623 20.7967H21.5649C22.186 20.7967 22.7207 20.3385 22.8412 19.7027C22.8712 19.5452 23.1111 18.1272 22.3273 16.924C21.9918 16.4091 21.3402 15.7468 20.1442 15.5182C18.601 15.2234 17.4415 15.9711 16.5093 16.5719C15.5918 17.1627 15.0358 17.4888 14.2667 17.3021C14.1533 17.2745 13.0925 16.923 10.7991 13.0985C9.52222 10.9694 8.53917 8.8769 8.529 8.85622C8.3572 8.48873 8.03544 8.22147 7.65371 8.12973C7.27147 8.03693 6.87042 8.12973 6.56086 8.38055C6.46581 8.45744 4.22675 10.3103 4.00411 13.6426C3.83282 16.2034 4.87229 18.8585 7.09661 21.5508C5.33738 22.4539 2.81876 22.7572 1.77318 22.788C1.20135 22.8039 0.706771 23.2063 0.553772 23.7812C0.400266 24.3555 0.623918 24.9674 1.10579 25.2888ZM11.0847 21.2597C11.4065 20.5888 11.1457 19.7733 10.5032 19.4381C9.98732 19.1693 9.38345 19.2907 8.99816 19.6948C7.29942 17.6171 6.49275 15.663 6.59695 13.8749C6.64321 13.089 6.86279 12.4309 7.12355 11.9117C7.52053 12.669 8.02121 13.5843 8.58136 14.5197C11.2144 18.9153 12.7509 19.7218 13.6776 19.9467C15.5283 20.3953 16.886 19.5203 17.8771 18.8813C18.6691 18.3707 19.1423 18.0864 19.675 18.1888C19.7818 18.2089 19.9815 18.2471 20.1274 18.403C18.9939 18.954 18.2797 20.1238 17.6291 21.1897C16.7868 22.5689 15.9156 23.9954 14.132 24.5649C11.3008 25.4691 8.63117 25.2209 6.56544 24.6843C8.38566 24.0856 10.2267 23.0504 11.0847 21.2597Z" fill="black"/>
</svg>
