<svg width="66" height="69" viewBox="0 0 66 69" fill="none" xmlns="http://www.w3.org/2000/svg">
<path d="M32.61 39.0926C35.0629 39.0926 37.0585 37.0107 37.0585 34.4518C37.0585 31.8929 35.0629 29.811 32.61 29.811C31.2318 29.811 29.9534 30.463 29.1025 31.5998C28.7778 32.0336 28.8516 32.6599 29.2675 32.9986C29.6833 33.3373 30.2835 33.2603 30.6083 32.8265C31.0945 32.1769 31.8241 31.8044 32.6098 31.8044C34.0092 31.8044 35.1477 32.9921 35.1477 34.452C35.1477 35.9118 34.0093 37.0995 32.6098 37.0995C31.817 37.0995 31.0834 36.7215 30.5972 36.0625C30.2756 35.6262 29.6756 35.5448 29.2575 35.8804C28.8394 36.2161 28.7613 36.8419 29.083 37.2781C29.934 38.4311 31.2193 39.0926 32.61 39.0926Z" fill="black"/>
<path d="M65.2156 34.4573C65.2123 34.064 65.0881 33.4636 64.719 32.933C63.5916 31.4072 61.1075 28.5504 57.1361 26.5619C56.6606 26.3239 56.0899 26.5328 55.8615 27.0292C55.6333 27.5254 55.8337 28.1207 56.3095 28.359C59.3891 29.9009 61.4827 32.0119 62.6688 33.4609H57.6545C57.1268 33.4609 56.6992 33.9071 56.6992 34.4575C56.6992 35.0079 57.1268 35.4541 57.6545 35.4541H62.6603C61.0441 37.4289 57.8241 40.542 52.8205 41.8706C52.0913 40.7647 51.2257 39.6646 50.1978 38.592C48.1389 36.4441 45.9756 35.1855 44.0622 34.4518C45.9756 33.718 48.139 32.4595 50.1978 30.3117C56.9415 23.2761 56.7427 15.0484 56.3439 11.8365C56.1978 10.8226 55.483 9.9005 54.285 9.68935C51.9266 9.3707 46.7444 9.17456 41.4167 12.2658C39.7445 6.15016 35.9477 2.46652 34.0647 0.952584C33.3476 0.358864 32.0729 0.218939 31.1527 0.952052C29.2693 2.46638 25.4723 6.15029 23.8001 12.2659C18.4721 9.17456 13.2898 9.37096 10.9308 9.68948C9.85893 9.83539 9.01254 10.7183 8.87269 11.8374C8.56725 14.2979 8.37924 19.7042 11.3424 25.2627C5.48024 27.007 1.94921 30.9684 0.497545 32.9334C-0.163393 33.8285 -0.163138 35.0778 0.497672 35.9705C1.94934 37.9355 5.48049 41.8968 11.3428 43.6411C8.37937 49.2 8.56737 54.6062 8.87294 57.0671C9.0128 58.1854 9.85906 59.0683 10.9318 59.2142C11.5948 59.3037 12.4799 59.3836 13.5296 59.3836C16.2141 59.3836 19.9693 58.8579 23.7998 56.6357C25.4715 62.7527 29.2691 66.4371 31.153 67.9517C31.9524 68.567 33.0641 68.6847 34.0641 67.9516C35.9478 66.4371 39.7454 62.7528 41.4172 56.6358C45.2477 58.8582 49.0027 59.3836 51.6875 59.3836C52.7368 59.3836 53.6229 59.3036 54.2859 59.214C55.3578 59.0683 56.2041 58.1854 56.3439 57.0671C56.344 57.0668 56.344 57.0664 56.344 57.0661C56.6494 54.6059 56.8374 49.1999 53.874 43.641C59.7362 41.8966 63.2673 37.9355 64.7185 35.9711C64.9512 35.6599 65.2058 35.0548 65.2156 34.4573ZM50.7581 42.2944C49.8403 42.43 48.8724 42.5056 47.8523 42.5056C43.6263 42.5056 40.6691 40.8446 38.984 39.5207C39.762 38.4489 40.3631 37.0985 40.5518 35.5702C42.6403 35.8763 45.8572 36.8823 48.8467 40.0012C49.5679 40.7539 50.2011 41.5214 50.7581 42.2944ZM40.1259 53.3869C39.385 52.8058 38.6493 52.1452 37.9278 51.3924C34.9381 48.2735 33.9739 44.9175 33.6804 42.7386C34.9753 42.5466 36.2666 42.06 37.4671 41.1029C38.7361 42.861 40.3284 45.9461 40.3284 50.3549C40.3284 51.4194 40.2559 52.4293 40.1259 53.3869ZM24.8883 50.355C24.8883 45.9461 26.4804 42.8611 27.7495 41.1031C28.778 41.9154 30.0713 42.5417 31.5361 42.7387C31.2428 44.9176 30.2784 48.2735 27.2887 51.3926C26.5673 52.1452 25.8317 52.8058 25.0907 53.3869C24.9606 52.4293 24.8883 51.4194 24.8883 50.355ZM25.0907 15.5173C25.8317 16.0984 26.5674 16.7583 27.2887 17.511C30.2784 20.63 31.2427 23.9859 31.5361 26.1648C30.2455 26.3534 28.9334 26.853 27.7495 27.8005C26.4804 26.0424 24.8883 22.9574 24.8883 18.5485C24.8883 17.4841 24.9606 16.4746 25.0907 15.5173ZM40.3284 18.5482C40.3284 22.9571 38.7361 26.0422 37.4671 27.8002C36.4398 26.9888 35.1455 26.3616 33.6804 26.1645C33.9739 23.9857 34.9381 20.6297 37.9278 17.5107C38.6493 16.758 39.3848 16.0975 40.1259 15.5163C40.2559 16.4739 40.3284 17.4838 40.3284 18.5482ZM31.6361 40.7382C29.3844 40.4466 27.0819 38.3241 26.6286 35.7347C25.8454 31.7232 28.8996 27.8111 33.0408 28.1016C36.428 28.2329 39.4495 32.0007 38.5889 35.7302C38.0431 38.8342 34.8763 41.3688 31.6361 40.7382ZM26.1863 29.4486C25.4325 30.5025 24.8502 31.8354 24.6649 33.3332C22.5763 33.027 19.3594 32.0209 16.3698 28.9021C15.6484 28.1494 15.0152 27.382 14.4582 26.6089C15.3761 26.4732 16.344 26.3976 17.3642 26.3976C21.5903 26.3976 24.5474 28.0586 26.2326 29.3826C26.2168 29.4043 26.202 29.4268 26.1863 29.4486ZM24.6763 35.6482C24.8623 36.9638 25.3391 38.3039 26.2326 39.5206C24.5474 40.8445 21.5903 42.5055 17.3642 42.5055C16.3441 42.5055 15.3762 42.4299 14.4585 42.2942C15.0154 41.5212 15.6485 40.7539 16.3697 40.0012C19.3581 36.8846 22.5756 35.8777 24.6649 35.5705C24.6683 35.5967 24.6729 35.6223 24.6763 35.6482ZM48.8466 28.9021C45.8571 32.0209 42.6402 33.027 40.5517 33.3332C40.3712 31.988 39.8923 30.618 38.9839 29.3827C40.6691 28.0588 43.6263 26.3977 47.8522 26.3977C48.8358 26.3977 49.8076 26.4703 50.7568 26.611C50.2002 27.3833 49.5674 28.1501 48.8466 28.9021ZM53.1366 11.5695L49.166 15.712C48.793 16.1012 48.793 16.7323 49.166 17.1213C49.3526 17.3159 49.5972 17.4133 49.8416 17.4133C50.086 17.4133 50.3306 17.316 50.5172 17.1213L54.5337 12.9312C54.7363 15.5093 54.5877 20.123 51.9275 24.7911C50.6061 24.535 49.2388 24.4044 47.8523 24.4044C44.9402 24.4044 42.5567 25.111 40.7057 26.0041C41.5618 24.0731 42.2391 21.5865 42.2391 18.5482C42.2391 17.0315 42.1056 15.6147 41.8718 14.2948C46.2852 11.5585 50.6481 11.3708 53.1366 11.5695ZM31.6584 3.09013V9.0959C31.6584 9.6463 32.0861 10.0925 32.6137 10.0925C33.1413 10.0925 33.569 9.6463 33.569 9.0959V3.09983C35.4619 4.78598 38.4458 8.14512 39.7193 13.3649C38.6593 14.1256 37.6047 15.029 36.5766 16.1015C34.5178 18.2494 33.3116 20.5063 32.6082 22.5024C31.9049 20.5063 30.6985 18.2494 28.6397 16.1015C27.6116 15.029 26.5571 14.1256 25.4971 13.3649C26.7731 8.13489 29.7663 4.77296 31.6584 3.09013ZM10.6897 12.8472L14.4725 16.7937C14.659 16.9882 14.9035 17.0856 15.148 17.0856C15.3924 17.0856 15.6369 16.9883 15.8234 16.7937C16.1965 16.4044 16.1965 15.7734 15.8234 15.3843L12.1615 11.5637C12.5726 11.5327 13.0315 11.5124 13.5331 11.5124C16.0824 11.5124 19.6964 12.0345 23.3448 14.2963C23.111 15.6158 22.9777 17.032 22.9777 18.5482C22.9777 21.5865 23.6551 24.0731 24.511 26.004C22.66 25.111 20.2765 24.4044 17.3644 24.4044C15.9105 24.4044 14.5526 24.5436 13.2874 24.7876C10.5997 20.0696 10.4773 15.407 10.6897 12.8472ZM2.5564 35.454H7.85956C8.38714 35.454 8.81486 35.0077 8.81486 34.4573C8.81486 33.9069 8.38714 33.4607 7.85956 33.4607H2.5471C4.16015 31.4866 7.38281 28.3641 12.3958 27.0331C13.125 28.1389 13.9909 29.239 15.0189 30.3115C17.0784 32.46 19.2424 33.7186 21.1561 34.4523C19.242 35.1863 17.0778 36.4446 15.0188 38.592C13.9909 39.6645 13.1252 40.7646 12.3961 41.8705C7.393 40.542 4.17301 37.4291 2.5564 35.454ZM11.9801 57.3254L16.1453 52.98C16.5184 52.5908 16.5184 51.9597 16.1453 51.5706C15.7723 51.1814 15.1674 51.1814 14.7944 51.5706L10.675 55.8682C10.4847 53.2719 10.6647 48.7206 13.2876 44.1158C14.5526 44.3598 15.9105 44.499 17.3642 44.499C20.2765 44.499 22.66 43.7923 24.5109 42.8994C23.6548 44.8304 22.9776 47.3169 22.9776 50.3552C22.9776 51.8719 23.111 53.2887 23.3449 54.6086C18.8712 57.3821 14.4502 57.5369 11.9801 57.3254ZM33.569 65.8034V59.8075C33.569 59.2571 33.1413 58.8109 32.6137 58.8109C32.0861 58.8109 31.6584 59.2571 31.6584 59.8075V65.8131C29.766 64.1302 26.7728 60.768 25.497 55.5374C26.5571 54.7767 27.6118 53.8743 28.6398 52.8018C30.6986 50.6539 31.905 48.397 32.6083 46.4008C33.3118 48.397 34.518 50.6539 36.5768 52.8018C37.6049 53.8744 38.6596 54.7767 39.7197 55.5376C38.4463 60.7575 35.4624 64.1167 33.569 65.8034ZM54.5474 55.7831L51.034 52.1177C50.6608 51.7285 50.056 51.7285 49.6829 52.1177C49.3098 52.5069 49.3098 53.138 49.6829 53.5271L53.317 57.3183C50.8623 57.54 46.3936 57.4119 41.8717 54.6085C42.1056 53.2885 42.239 51.8717 42.239 50.355C42.239 47.3168 41.5616 44.8303 40.7057 42.8992C42.5567 43.7922 44.9402 44.4989 47.8523 44.4989C49.306 44.4989 50.6639 44.3596 51.929 44.1156C54.5237 48.671 54.7276 53.1735 54.5474 55.7831Z" fill="black"/>
</svg>
