<svg width="67" height="70" viewBox="0 0 67 70" fill="none" xmlns="http://www.w3.org/2000/svg">
<path d="M33.478 26.545C33.1604 26.545 32.8429 26.4769 32.5471 26.3408C28.6311 24.5391 26 19.6302 26 14.1258C26 9.5686 27.7518 5.43671 30.686 3.07317C31.0217 2.80279 31.3032 2.43311 31.4997 2.00422L31.9614 0.996925C32.2434 0.3821 32.8243 0 33.4776 0C34.131 0 34.712 0.381964 34.9939 0.996789L35.4555 2.00381C35.652 2.4327 35.9334 2.80225 36.2692 3.07262C38.5619 4.91956 40.193 7.97049 40.7445 11.4431C40.8331 12.0005 40.4716 12.5273 39.9372 12.6195C39.4027 12.7119 38.898 12.335 38.8094 11.7774C38.3382 8.80917 36.9753 6.22669 35.0705 4.69229C34.4932 4.22725 34.0144 3.60287 33.686 2.88642L33.4776 2.43174L33.269 2.88683C32.9407 3.60301 32.462 4.22738 31.8846 4.69256C29.4646 6.64208 27.9613 10.2565 27.9613 14.1257C27.9613 18.8323 30.1222 22.9888 33.3385 24.4685C33.427 24.5091 33.5286 24.5091 33.6172 24.4685C36.2953 23.2361 38.2983 20.0832 38.8445 16.2401C38.924 15.6811 39.4241 15.2957 39.9583 15.3781C40.4941 15.4609 40.8641 15.9812 40.7846 16.5403C40.1404 21.0721 37.6975 24.8274 34.4087 26.3406C34.1132 26.4769 33.7957 26.545 33.478 26.545V26.545Z" fill="white"/>
<path d="M21.1133 32.0194C18.1944 32.0196 15.0458 30.852 12.3917 28.6415C9.00656 25.8223 7.00385 21.846 7.03445 18.0049C7.0385 17.4957 6.94252 17.0265 6.74939 16.6105L6.27578 15.5902C5.99099 14.9768 6.06735 14.2647 6.47493 13.732C6.88251 13.1993 7.5312 12.9642 8.16774 13.1177L9.2261 13.3733C9.65761 13.4778 10.1174 13.4714 10.5924 13.3544C14.1765 12.4718 18.3368 13.6287 21.7221 16.448C25.8455 19.882 27.8814 25.0895 26.7882 29.4061C26.6231 30.0583 26.1997 30.6116 25.6267 30.9241C24.2752 31.6613 22.7292 32.0193 21.1133 32.0194V32.0194ZM8.2968 15.249L8.51464 15.7184C8.84049 16.4202 9.00224 17.1951 8.99571 18.0217C8.97047 21.1916 10.7406 24.6481 13.6153 27.0422C17.141 29.9785 21.6027 30.8098 24.7179 29.1106C24.8038 29.0638 24.8673 28.9809 24.892 28.8832C25.7898 25.3381 24.0241 20.9831 20.4985 18.0469C17.6236 15.6527 14.0008 14.6177 11.0429 15.3456C10.272 15.5355 9.51181 15.5425 8.78361 15.3665L8.2968 15.249Z" fill="white"/>
<path d="M11.4234 49.1092C8.41309 49.1094 5.60791 48.1631 3.53394 46.3776C3.20665 46.0959 2.79881 45.8916 2.35436 45.7866L1.31064 45.5399C0.673448 45.3893 0.187547 44.8829 0.0427966 44.2182C-0.101954 43.5534 0.126352 42.8778 0.638797 42.4547L1.47762 41.762C1.83485 41.467 2.11808 41.0988 2.29656 40.6973C3.85587 37.1884 7.32988 34.4908 11.5898 33.4812C16.7345 32.2615 21.9057 33.8505 24.4575 37.4349C24.843 37.9764 24.9935 38.6668 24.8701 39.329C24.5901 40.8319 23.9079 42.3305 22.8974 43.6627C22.5612 44.1058 21.9447 44.1808 21.5199 43.8301C21.0952 43.4795 21.0234 42.836 21.3594 42.3929C22.1762 41.3162 22.7244 40.1218 22.9448 38.9388C22.9632 38.8396 22.9407 38.7362 22.883 38.655C20.7871 35.7112 16.4233 34.4338 12.0243 35.4765C8.40746 36.3338 5.36182 38.664 4.0758 41.5579C3.76904 42.2483 3.29138 42.8738 2.69472 43.3667L2.31592 43.6793L2.78743 43.7907C3.52962 43.9661 4.21938 44.3148 4.78203 44.7992C7.14041 46.8292 10.852 47.5578 14.4685 46.7005C15.7832 46.389 17.0233 45.8891 18.1545 45.215C18.6247 44.9346 19.2237 45.1053 19.4924 45.5958C19.7612 46.0865 19.5977 46.7115 19.1274 46.9917C17.8279 47.7661 16.4065 48.3394 14.9029 48.6958C13.7333 48.9734 12.5634 49.1091 11.4234 49.1092V49.1092Z" fill="white"/>
<path d="M18.8441 69.2001C18.5955 69.2001 18.345 69.1417 18.1093 69.0231C17.521 68.7264 17.1573 68.1186 17.16 67.437L17.1645 66.3209C17.1645 66.3209 17.1645 66.3209 17.1645 66.3208C17.1664 65.8455 17.0673 65.385 16.8778 64.989C15.2222 61.5285 15.3687 57.013 17.27 52.9099C19.5662 47.9544 23.9863 44.7298 28.2596 44.885C28.9059 44.9086 29.5169 45.2168 29.936 45.7304C32.7099 49.1305 33.0309 54.7447 30.7345 59.7006C28.8333 63.8035 25.5325 66.7281 21.9046 67.5239C21.4895 67.6148 21.082 67.82 20.726 68.1169L19.89 68.8141C19.5844 69.0692 19.2163 69.2001 18.8441 69.2001V69.2001ZM19.1259 66.3295L19.1238 66.8335L19.5015 66.5185C20.0958 66.0227 20.7874 65.6779 21.5014 65.5214C24.4933 64.8651 27.3547 62.2934 28.9689 58.81C30.9324 54.5726 30.7209 49.8493 28.4426 47.0567C28.3798 46.9798 28.2883 46.9336 28.1914 46.93C24.6813 46.8011 20.9995 49.5632 19.036 53.8004C17.4218 57.2841 17.2672 61.221 18.6329 64.075C18.9586 64.756 19.1291 65.5357 19.1259 66.3295V66.3295Z" fill="white"/>
<path d="M45.8323 32.0194C44.2161 32.0194 42.6707 31.6614 41.319 30.9241C40.746 30.6116 40.3226 30.0583 40.1575 29.4061C39.0643 25.0893 41.1002 19.8819 45.2236 16.448C48.6087 13.6285 52.7691 12.4719 56.3533 13.3543C56.8282 13.4712 57.2878 13.4778 57.7195 13.3733H57.7196L58.778 13.1176C59.4145 12.9638 60.0631 13.1992 60.4706 13.7319C60.8784 14.2646 60.9546 14.9767 60.6698 15.5902L60.1962 16.6104C60.0029 17.0266 59.9071 17.4959 59.9111 18.0049C59.9417 21.8461 57.939 25.8224 54.5539 28.6416C51.9 30.8517 48.751 32.0194 45.8323 32.0194V32.0194ZM53.9494 15.1167C51.4454 15.1167 48.7141 16.1593 46.4472 18.0472C42.9217 20.9835 41.1559 25.3383 42.0537 28.8836C42.0784 28.9813 42.1419 29.0642 42.2276 29.1109C45.343 30.8102 49.8047 29.9786 53.3305 27.0424C56.2051 24.6483 57.9752 21.1918 57.95 18.0219C57.9435 17.1957 58.1052 16.4207 58.4312 15.7187L58.649 15.2491L58.1624 15.3667C57.4343 15.5426 56.6741 15.5357 55.903 15.3459C55.2772 15.1917 54.6214 15.1167 53.9494 15.1167V15.1167Z" fill="white"/>
<path d="M55.524 49.1088C54.3838 49.1088 53.2146 48.9731 52.0443 48.6956C46.8992 47.4762 42.8937 43.712 42.0773 39.3289C41.954 38.6668 42.1043 37.9764 42.4897 37.4348C45.0415 33.8505 50.2131 32.2616 55.3576 33.4811C59.6174 34.4908 63.0915 37.1883 64.6509 40.697C64.8292 41.0986 65.1125 41.4668 65.4698 41.7619L66.3087 42.4545C66.821 42.8774 67.0494 43.5532 66.9048 44.2178C66.76 44.8825 66.2743 45.3889 65.6369 45.5395L64.5932 45.7862C64.1489 45.8912 63.7409 46.0955 63.4138 46.3771C61.3395 48.1624 58.5341 49.1087 55.524 49.1088V49.1088ZM51.8908 35.1171C48.6186 35.1171 45.6733 36.3949 44.0643 38.6548C44.0068 38.7358 43.9841 38.8393 44.0026 38.9386C44.6731 42.5384 48.0795 45.6577 52.4788 46.7003C56.0958 47.5576 59.807 46.8289 62.1653 44.7989C62.7279 44.3146 63.4177 43.9658 64.16 43.7905L64.6314 43.6792L64.2527 43.3666C63.6561 42.8738 63.1784 42.2485 62.8716 41.558C61.5855 38.664 58.54 36.3336 54.9232 35.4764C53.9012 35.2341 52.881 35.1171 51.8908 35.1171V35.1171ZM65.0914 44.059H65.0929H65.0914Z" fill="white"/>
<path d="M48.1131 69.196C47.7407 69.196 47.3729 69.065 47.0668 68.8097L46.231 68.1126C45.8749 67.8157 45.4674 67.6106 45.0525 67.5196C41.4245 66.7239 38.1238 63.7993 36.2226 59.6963C33.9262 54.7406 34.247 49.1264 37.0211 45.7262C37.4402 45.2125 38.0512 44.9043 38.6974 44.8807C42.3675 44.7461 46.1808 47.0945 48.6525 51.0062C48.9507 51.4779 48.8256 52.1125 48.3735 52.4234C47.9214 52.7345 47.313 52.6042 47.015 52.1322C44.9169 48.8117 41.7551 46.8157 38.7658 46.9256C38.6689 46.9292 38.5774 46.9753 38.5145 47.0523C36.2362 49.8449 36.0247 54.5683 37.9882 58.8056C39.6024 62.2891 42.464 64.8607 45.4559 65.517C46.1697 65.6735 46.8611 66.0183 47.4556 66.5141L47.8333 66.8291L47.8312 66.3253C47.8282 65.5311 47.9986 64.7514 48.3244 64.0706C49.3688 61.8878 49.5408 59.0238 48.7957 56.2126C48.6513 55.6681 48.9575 55.1045 49.4796 54.9539C50.0014 54.8033 50.5416 55.123 50.686 55.6674C51.5584 58.9594 51.3371 62.3553 50.079 64.9846C49.8896 65.3805 49.7904 65.8411 49.7924 66.3167L49.7969 67.4326C49.7997 68.1144 49.4358 68.7221 48.8475 69.0188C48.6124 69.1376 48.3618 69.196 48.1131 69.196V69.196Z" fill="white"/>
</svg>
