<svg width="68" height="71" viewBox="0 0 68 71" fill="none" xmlns="http://www.w3.org/2000/svg">
<path d="M66.8283 62.4365L49.7491 53.7874V51.9291C52.5825 49.5492 54.915 46.4953 56.5004 43.0804C58.1181 39.5961 58.9732 35.708 58.9732 31.8367C58.9732 27.2032 57.7801 22.6569 55.5227 18.6895C55.1559 18.0449 54.3574 17.8328 53.7394 18.2151C53.1215 18.5978 52.9178 19.4308 53.2847 20.0755C55.3035 23.6236 56.3706 27.6907 56.3706 31.8367C56.3706 38.1064 53.9825 43.9825 49.7489 48.3039V42.3776C49.7489 41.608 49.7597 40.9218 49.7693 40.3163C49.8168 37.3201 49.843 35.6696 48.5364 31.9833C48.5222 31.9436 48.5064 31.9043 48.4887 31.8661L40.1027 13.668C40.1002 13.6629 40.0977 13.6576 40.0952 13.6524C39.2087 11.7903 37.5285 11.4589 36.3427 11.9387C35.442 12.303 34.7415 12.8839 34.2494 13.6506C33.7573 12.8839 33.0568 12.303 32.1562 11.9387C30.9703 11.4588 29.2901 11.7901 28.4035 13.6524C28.4011 13.6576 28.3986 13.6629 28.3961 13.668L20.01 31.8662C19.9923 31.9045 19.9764 31.9436 19.9622 31.9835C18.6555 35.6696 18.6818 37.3202 18.7293 40.3164C18.7389 40.9219 18.7497 41.6081 18.7497 42.3777V48.304C14.5163 43.9826 12.1282 38.1065 12.1282 31.8369C12.1282 19.1116 22.0518 8.75877 34.2494 8.75877C38.2239 8.75877 42.1219 9.87181 45.5219 11.9776C46.1402 12.3606 46.9384 12.1483 47.3052 11.5033C47.672 10.8586 47.4685 10.0258 46.8505 9.64307C43.0485 7.28829 38.6912 6.0437 34.2494 6.0437C20.6166 6.0437 9.52572 17.6144 9.52572 31.8369C9.52572 35.7084 10.3808 39.5964 11.9985 43.0807C13.5839 46.4954 15.9164 49.5492 18.7497 51.9291V53.7875L1.67062 62.4365C1.22221 62.6636 0.9375 63.1378 0.9375 63.6578V68.7617C0.9375 69.5113 1.52007 70.1192 2.23875 70.1192H21.0836C21.4103 70.1192 21.7249 69.9911 21.9651 69.7602L27.3542 64.5821C29.3829 64.4431 31.3225 63.5065 32.7419 61.9646C33.3813 61.27 33.8871 60.4872 34.2494 59.6477C34.6115 60.4872 35.1175 61.27 35.7568 61.9646C37.1762 63.5065 39.1158 64.4431 41.1444 64.5821L46.5335 69.7602C46.7738 69.9909 47.0884 70.1192 47.415 70.1192H66.26C66.9787 70.1192 67.5613 69.5113 67.5613 68.7617V63.6578C67.5613 63.1378 67.2767 62.6636 66.8283 62.4365ZM30.865 60.0841C29.8114 61.2287 28.3398 61.8852 26.8277 61.8852C26.5011 61.8852 26.1865 62.0134 25.9463 62.2443L20.5759 67.4043H3.53999V64.508L20.6192 55.8589C21.0676 55.6317 21.3522 55.1576 21.3522 54.6376V42.3777C21.3522 41.5857 21.3412 40.8876 21.3314 40.2715C21.2866 37.4481 21.2661 36.1503 22.3823 32.9845L30.7376 14.8532C30.888 14.5401 31.0494 14.4122 31.2151 14.4699C32.9355 15.1659 32.5635 17.7624 32.1799 19.2717L27.6655 33.8733C26.6998 34.5901 25.9572 35.8321 25.8514 37.6584L25.2707 47.687C25.2273 48.4356 25.7737 49.0788 26.4911 49.124C27.2091 49.1711 27.825 48.5992 27.8685 47.8509L28.4492 37.8221C28.5213 36.5764 29.0672 35.8349 29.9105 35.8349H29.9255C30.6902 35.843 31.5385 36.5018 31.5939 37.9298L32.3039 56.2304C32.3588 57.6478 31.8478 59.0164 30.865 60.0841ZM34.3046 37.8199L34.2494 39.2417L34.1942 37.8199C34.09 35.1311 32.3749 33.5252 30.612 33.1871L34.2494 21.4225L37.8866 33.1871C36.124 33.5252 34.4089 35.1312 34.3046 37.8199ZM64.9588 67.4042H47.9231L42.5529 62.2442C42.3127 62.0134 41.998 61.8851 41.6714 61.8851C40.1593 61.8851 38.6877 61.2286 37.6341 60.0839C36.6512 59.0162 36.1402 57.6477 36.1951 56.2301L36.9051 37.9295C36.9605 36.5015 37.8088 35.8427 38.5736 35.8347H38.5885C39.4317 35.8347 39.9777 36.5762 40.0498 37.822L40.6307 47.8506C40.674 48.599 41.2898 49.171 42.0081 49.1237C42.7254 49.0785 43.2718 48.4353 43.2285 47.6868L42.6476 37.6583C42.5418 35.8317 41.7993 34.5897 40.8336 33.8729L36.3192 19.2714C35.9354 17.7621 35.5634 15.1657 37.2816 14.4706C37.4499 14.411 37.611 14.54 37.7615 14.8527L46.1169 32.9843C47.2331 36.1498 47.2124 37.4477 47.1676 40.2712C47.1579 40.8871 47.1468 41.5855 47.1468 42.3775V54.6374C47.1468 55.1573 47.4315 55.6315 47.8798 55.8586L64.9588 64.5079V67.4042Z" fill="#222221"/>
<path d="M34.251 3.32836C34.9697 3.32836 35.5522 2.72045 35.5522 1.97082C35.5522 1.22119 34.9697 0.613281 34.251 0.613281H34.2501C33.5314 0.613281 32.9492 1.22119 32.9492 1.97082C32.9492 2.72045 33.5323 3.32836 34.251 3.32836Z" fill="#222221"/>
<path d="M47.8814 7.12852C48.0942 7.26508 48.3296 7.32997 48.5622 7.32997C48.999 7.32997 49.4259 7.10055 49.6717 6.68379C50.0484 6.0452 49.8575 5.20909 49.2455 4.81609L49.2447 4.81554C48.6327 4.42254 47.8316 4.62196 47.4549 5.26041C47.0781 5.89926 47.2694 6.73564 47.8814 7.12852Z" fill="#222221"/>
<path d="M59.0429 18.2623C59.2383 18.2623 59.437 18.2161 59.6238 18.1186C60.2666 17.7833 60.5271 16.9679 60.2057 16.2972L60.2053 16.2963C59.8839 15.6258 59.1022 15.3542 58.4597 15.6897C57.8168 16.025 57.5566 16.8408 57.8779 17.5114C58.106 17.9872 58.5655 18.2623 59.0429 18.2623Z" fill="#222221"/>
<path d="M62.8774 33.1949C63.5961 33.1949 64.1787 32.587 64.1787 31.8373V31.8362C64.1787 31.0866 63.5961 30.4792 62.8774 30.4792C62.1587 30.4792 61.5762 31.0876 61.5762 31.8373C61.5762 32.5871 62.1589 33.1949 62.8774 33.1949Z" fill="#222221"/>
<path d="M59.6239 45.5554C58.9812 45.2197 58.1992 45.4921 57.8779 46.163C57.5565 46.8335 57.817 47.649 58.4598 47.9843C58.6467 48.0817 58.8451 48.1279 59.0407 48.1279C59.518 48.1279 59.9776 47.853 60.2056 47.3773L60.206 47.3764C60.5275 46.7055 60.2667 45.8905 59.6239 45.5554Z" fill="#222221"/>
<path d="M19.9358 7.3296C20.1686 7.3296 20.4042 7.26457 20.6168 7.128C21.229 6.735 21.4197 5.89889 21.043 5.2603C20.6663 4.62172 19.8647 4.42257 19.2527 4.81571L19.252 4.81625C18.6399 5.20926 18.4495 6.0451 18.8262 6.68368C19.0721 7.10017 19.4988 7.3296 19.9358 7.3296Z" fill="#222221"/>
<path d="M8.87402 18.1184C9.06075 18.2159 9.25906 18.262 9.45463 18.262C9.93206 18.262 10.3921 17.9868 10.62 17.5109C10.9414 16.8404 10.6809 16.0249 10.0381 15.6896C9.39543 15.3542 8.61364 15.6259 8.29223 16.2967L8.29184 16.2977C7.97056 16.9683 8.23133 17.7832 8.87402 18.1184Z" fill="#222221"/>
<path d="M5.62156 33.1949C6.34024 33.1949 6.92281 32.5866 6.92281 31.8368C6.92281 31.087 6.34024 30.4792 5.62156 30.4792C4.90288 30.4792 4.32031 31.0872 4.32031 31.8368V31.8379C4.32031 32.5875 4.90288 33.1949 5.62156 33.1949Z" fill="#222221"/>
<path d="M8.29249 47.3777C8.52047 47.8532 8.97968 48.128 9.45685 48.128C9.65243 48.128 9.85113 48.0817 10.038 47.9841C10.6808 47.6488 10.9411 46.833 10.6198 46.1624C10.2984 45.4918 9.51684 45.22 8.87389 45.5552C8.23107 45.8905 7.97056 46.7059 8.29197 47.3766L8.29249 47.3777Z" fill="#222221"/>
<path d="M49.891 15.5187C50.1452 15.7837 50.4782 15.9163 50.8112 15.9163C51.1441 15.9163 51.4771 15.7837 51.7313 15.5187C52.2394 14.9886 52.2394 14.129 51.7313 13.5987L51.7306 13.5981C51.2225 13.0681 50.3991 13.0682 49.8908 13.5985C49.3825 14.1287 49.3829 14.9886 49.891 15.5187Z" fill="#222221"/>
</svg>
