<svg width="67" height="70" viewBox="0 0 67 70" fill="none" xmlns="http://www.w3.org/2000/svg">
<path d="M65.8908 61.8232L48.8115 53.1741V51.3158C51.645 48.9359 53.9775 45.882 55.5629 42.4671C57.1806 38.9829 58.0357 35.0947 58.0357 31.2235C58.0357 26.5899 56.8426 22.0437 54.5852 18.0763C54.2184 17.4316 53.4199 17.2195 52.8019 17.6018C52.184 17.9845 51.9803 18.8175 52.3472 19.4622C54.366 23.0104 55.4331 27.0774 55.4331 31.2235C55.4331 37.4931 53.045 43.3692 48.8114 47.6906V41.7643C48.8114 40.9947 48.8222 40.3085 48.8318 39.703C48.8793 36.7068 48.9055 35.0563 47.5989 31.3701C47.5847 31.3303 47.5689 31.2911 47.5512 31.2528L39.1652 13.0547C39.1627 13.0496 39.1602 13.0443 39.1577 13.0391C38.2712 11.177 36.591 10.8456 35.4052 11.3254C34.5045 11.6897 33.804 12.2706 33.3119 13.0374C32.8198 12.2706 32.1193 11.6897 31.2187 11.3254C30.0328 10.8455 28.3526 11.1769 27.466 13.0391C27.4636 13.0443 27.4611 13.0496 27.4586 13.0547L19.0725 31.2529C19.0548 31.2912 19.0389 31.3303 19.0247 31.3702C17.718 35.0563 17.7443 36.7069 17.7918 39.7032C17.8014 40.3086 17.8122 40.9948 17.8122 41.7644V47.6908C13.5788 43.3693 11.1907 37.4932 11.1907 31.2236C11.1907 18.4983 21.1143 8.14549 33.3119 8.14549C37.2864 8.14549 41.1844 9.25853 44.5845 11.3643C45.2027 11.7473 46.0009 11.535 46.3677 10.89C46.7345 10.2453 46.531 9.41248 45.913 9.02979C42.111 6.67501 37.7537 5.43042 33.3119 5.43042C19.6791 5.43042 8.58822 17.0011 8.58822 31.2236C8.58822 35.0951 9.44327 38.9831 11.061 42.4674C12.6464 45.8821 14.9789 48.9359 17.8122 51.3158V53.1743L0.733122 61.8232C0.284713 62.0504 0 62.5245 0 63.0445V68.1484C0 68.898 0.582568 69.5059 1.30125 69.5059H20.1461C20.4728 69.5059 20.7874 69.3778 21.0276 69.1469L26.4167 63.9688C28.4454 63.8298 30.385 62.8933 31.8044 61.3514C32.4438 60.6567 32.9496 59.874 33.3119 59.0345C33.674 59.874 34.18 60.6567 34.8193 61.3514C36.2387 62.8933 38.1783 63.8298 40.2069 63.9688L45.596 69.1469C45.8363 69.3777 46.1509 69.5059 46.4775 69.5059H65.3225C66.0412 69.5059 66.6238 68.898 66.6238 68.1484V63.0445C66.6238 62.5245 66.3392 62.0504 65.8908 61.8232ZM29.9275 59.4708C28.8739 60.6154 27.4023 61.2719 25.8902 61.2719C25.5636 61.2719 25.249 61.4001 25.0088 61.631L19.6384 66.791H2.60249V63.8947L19.6817 55.2456C20.1301 55.0185 20.4147 54.5443 20.4147 54.0243V41.7644C20.4147 40.9725 20.4037 40.2743 20.3939 39.6582C20.3491 36.8348 20.3286 35.537 21.4448 32.3712L29.8001 14.2399C29.9505 13.9268 30.1119 13.7989 30.2776 13.8566C31.998 14.5526 31.626 17.1491 31.2424 18.6584L26.728 33.26C25.7623 33.9768 25.0197 35.2188 24.9139 37.0451L24.3332 47.0738C24.2898 47.8223 24.8362 48.4655 25.5536 48.5107C26.2716 48.5578 26.8875 47.9859 26.931 47.2376L27.5117 37.2088C27.5838 35.9632 28.1297 35.2217 28.973 35.2217H28.988C29.7527 35.2297 30.601 35.8885 30.6564 37.3165L31.3664 55.6171C31.4213 57.0345 30.9103 58.4031 29.9275 59.4708V59.4708ZM33.3671 37.2067L33.3119 38.6284L33.2567 37.2067C33.1525 34.5178 31.4374 32.912 29.6745 32.5738L33.3119 20.8093L36.9491 32.5738C35.1865 32.912 33.4714 34.5179 33.3671 37.2067ZM64.0213 66.7909H46.9856L41.6154 61.6309C41.3752 61.4001 41.0605 61.2718 40.7339 61.2718C39.2218 61.2718 37.7502 60.6153 36.6966 59.4706C35.7137 58.4029 35.2027 57.0344 35.2576 55.6169L35.9676 37.3162C36.023 35.8882 36.8713 35.2294 37.6361 35.2214H37.651C38.4942 35.2214 39.0402 35.9629 39.1123 37.2087L39.6932 47.2373C39.7365 47.9857 40.3523 48.5577 41.0706 48.5104C41.7879 48.4652 42.3343 47.822 42.291 47.0735L41.7101 37.045C41.6043 35.2184 40.8618 33.9764 39.8961 33.2596L35.3817 18.6581C34.9979 17.1488 34.6259 14.5524 36.3441 13.8573C36.5124 13.7977 36.6735 13.9267 36.824 14.2395L45.1794 32.371C46.2956 35.5365 46.2749 36.8344 46.2301 39.658C46.2204 40.2739 46.2093 40.9722 46.2093 41.7642V54.0241C46.2093 54.544 46.494 55.0182 46.9423 55.2453L64.0213 63.8946V66.7909Z" fill="white"/>
<path d="M33.3135 2.71508C34.0322 2.71508 34.6147 2.10717 34.6147 1.35754C34.6147 0.607905 34.0322 0 33.3135 0H33.3126C32.5939 0 32.0117 0.607905 32.0117 1.35754C32.0117 2.10717 32.5948 2.71508 33.3135 2.71508Z" fill="white"/>
<path d="M46.9439 6.51523C47.1567 6.6518 47.3921 6.71669 47.6247 6.71669C48.0615 6.71669 48.4884 6.48727 48.7342 6.0705C49.1109 5.43192 48.92 4.59581 48.308 4.2028L48.3072 4.20226C47.6952 3.80925 46.8941 4.00868 46.5174 4.64713C46.1406 5.28598 46.3319 6.12236 46.9439 6.51523V6.51523Z" fill="white"/>
<path d="M58.1054 17.649C58.3008 17.649 58.4995 17.6028 58.6863 17.5054C59.3291 17.17 59.5896 16.3546 59.2682 15.684L59.2678 15.683C58.9464 15.0125 58.1647 14.7409 57.5222 15.0765C56.8793 15.4118 56.6191 16.2275 56.9404 16.8981C57.1685 17.374 57.628 17.649 58.1054 17.649V17.649Z" fill="white"/>
<path d="M61.9399 32.5816C62.6586 32.5816 63.2412 31.9737 63.2412 31.224V31.223C63.2412 30.4733 62.6586 29.866 61.9399 29.866C61.2212 29.866 60.6387 30.4743 60.6387 31.224C60.6387 31.9738 61.2214 32.5816 61.9399 32.5816V32.5816Z" fill="white"/>
<path d="M58.6864 44.9421C58.0437 44.6064 57.2617 44.8788 56.9404 45.5497C56.619 46.2202 56.8795 47.0357 57.5223 47.371C57.7092 47.4685 57.9076 47.5146 58.1032 47.5146C58.5805 47.5146 59.0401 47.2397 59.2681 46.764L59.2685 46.7631C59.59 46.0922 59.3292 45.2773 58.6864 44.9421V44.9421Z" fill="white"/>
<path d="M18.9983 6.71632C19.2311 6.71632 19.4667 6.65129 19.6793 6.51472C20.2915 6.12172 20.4822 5.28561 20.1055 4.64702C19.7288 4.00844 18.9272 3.80929 18.3152 4.20243L18.3145 4.20297C17.7024 4.59598 17.512 5.43181 17.8887 6.0704C18.1346 6.48689 18.5613 6.71632 18.9983 6.71632Z" fill="white"/>
<path d="M7.93652 17.5051C8.12325 17.6026 8.32156 17.6487 8.51713 17.6487C8.99456 17.6487 9.45455 17.3736 9.68253 16.8976C10.0039 16.2271 9.74343 15.4116 9.10061 15.0763C8.45793 14.7409 7.67614 15.0127 7.35473 15.6834L7.35434 15.6844C7.03306 16.355 7.29383 17.1699 7.93652 17.5051V17.5051Z" fill="white"/>
<path d="M4.68406 32.5816C5.40274 32.5816 5.98531 31.9733 5.98531 31.2235C5.98531 30.4737 5.40274 29.866 4.68406 29.866C3.96538 29.866 3.38281 30.4739 3.38281 31.2235V31.2246C3.38281 31.9742 3.96538 32.5816 4.68406 32.5816V32.5816Z" fill="white"/>
<path d="M7.35499 46.7644C7.58297 47.2399 8.04218 47.5147 8.51935 47.5147C8.71493 47.5147 8.91363 47.4684 9.10049 47.3708C9.74331 47.0355 10.0036 46.2197 9.68228 45.5491C9.36087 44.8785 8.57934 44.6067 7.93639 44.9419C7.29357 45.2772 7.03306 46.0927 7.35447 46.7633L7.35499 46.7644Z" fill="white"/>
<path d="M48.9535 14.9054C49.2077 15.1704 49.5407 15.3031 49.8737 15.3031C50.2066 15.3031 50.5396 15.1704 50.7938 14.9054C51.3019 14.3753 51.3019 13.5157 50.7938 12.9855L50.7931 12.9848C50.285 12.4548 49.4616 12.4549 48.9533 12.9852C48.445 13.5154 48.4454 14.3753 48.9535 14.9054V14.9054Z" fill="white"/>
</svg>
