<svg xmlns="http://www.w3.org/2000/svg" xmlns:xlink="http://www.w3.org/1999/xlink" width="182" height="284" viewBox="0 0 182 284">
  <defs>
    <clipPath id="clip-path">
      <rect id="Rectangle_2" data-name="Rectangle 2" width="182" height="284" transform="translate(90 536)" fill="none"/>
    </clipPath>
  </defs>
  <g id="Mask_Group_2" data-name="Mask Group 2" transform="translate(-90 -536)" clip-path="url(#clip-path)">
    <g id="Group_12629" data-name="Group 12629" transform="translate(9.832 552)">
      <path id="Path_1" data-name="Path 1" d="M337.46,208.838c0,26.609-32.977,55.5-59.544,55.5s-56.375-32.2-56.375-58.811,27.6-50.942,54.169-50.942S337.46,182.228,337.46,208.838Z" transform="translate(-112.148 -78.312)" fill="#b8d8ff"/>
      <path id="Path_2" data-name="Path 2" d="M211.253,266.8a27.812,27.812,0,0,1-9.343,5.044c-6.823,2-13.5,1.916-19.805-1.612a13.624,13.624,0,0,1-7.153-11.746c-.273-4.524.94-8.768,2.273-13,.467-1.49.426-1.579-1.123-1.541a33.19,33.19,0,0,1-19.4-5.749c-1.444-.945-1.424-.9-2.147.76a73.63,73.63,0,0,1-15.5,22.4c-2.533,2.568-5.288,4.882-7.97,7.279l-.373.32a22.741,22.741,0,0,0-4.443,3.153l-.028.028a3.787,3.787,0,0,0-2.147,1.405,12.634,12.634,0,0,0-3.281,1.654c-7.676,4.024-15.763,6.019-24.466,5.042-1.179-.132-2.346-.338-3.522-.511a47.062,47.062,0,0,1-11.051-4.714,3.427,3.427,0,0,0-3.292.151,54.42,54.42,0,0,1-7.772,3.079c-7.062,1.963-13.889,1.537-20.275-2.218a28.585,28.585,0,0,1-10.287-10.988,1.55,1.55,0,0,0-1.846-.967c-8.032,1.48-15.848.294-23.571-1.961-4.439-1.294-8.769-2.9-13.136-4.409-.527-.181-1.066-.347-1.307-.9a.98.98,0,0,1,.164-1.15,1.223,1.223,0,0,1,1.392-.213c2.718.952,5.433,1.916,8.177,2.8a53.485,53.485,0,0,0,8.14,2.359,1.33,1.33,0,0,0,1.177.317c5.727,1.6,7.5,3.317,13.373,2.527,1.87-.247,1.844-.351,1.354-2.129a20.625,20.625,0,0,1,.275-12.813,13.667,13.667,0,0,1,11.328-9.425,8.237,8.237,0,0,1,8.051,3.522c2.346,3.168,2.314,6.613.67,10.119-2.878,6.142-8.125,9.334-14.266,11.359-2.475.818,1.525-.643,2.966,1.486,2.9,4.282,6.409,7.878,11.3,9.875a23.8,23.8,0,0,0,14.688.852,31.727,31.727,0,0,0,7.808-2.961,6.973,6.973,0,0,1,7.516.426,28.635,28.635,0,0,0,8.991,3.619,34.531,34.531,0,0,0,17.889-.756c8.776-2.651,16.108-7.724,22.846-13.768a75.383,75.383,0,0,0,14.807-17.9,69.471,69.471,0,0,0,3.972-7.975,1.674,1.674,0,0,0-.41-2.169,28.566,28.566,0,0,1-6.61-9.351,1.689,1.689,0,0,0-1.872-1.186,75.68,75.68,0,0,1-9.869-.451c-1.316-.126-1.67.279-1.749,1.518a48.986,48.986,0,0,1-4.691,18.887,22.526,22.526,0,0,1-6.428,8.09,14.09,14.09,0,0,1-18.093-.473c-5.256-4.343-8.17-10.122-10.093-16.477a59.647,59.647,0,0,1-1.851-23.483,75,75,0,0,1,1.29-8.1,2.94,2.94,0,0,0-.314-2.483A43.713,43.713,0,0,1,90.6,155.246a25.362,25.362,0,0,1,11.277-10.495c5.934-2.676,11.483-1.771,16.8,1.659a31.793,31.793,0,0,1,5.1,4.149c.765.754,1.16.958,1.62-.317a57.108,57.108,0,0,1,8.081-15.044c4.607-6.112,10.234-10.946,17.453-13.726,5.277-2.031,10.7-2.6,16.14-.8a18.5,18.5,0,0,1,10.76,9.638,28.779,28.779,0,0,1,2.849,11.9,1.639,1.639,0,0,0,1.292,1.656,76.872,76.872,0,0,1,17.326,8.2c.744.5,1.1.313,1.279-.59A52.606,52.606,0,0,1,202.3,146a13.4,13.4,0,0,1,2.245-3.387c5.644-7.771,15.138-10.464,24.189-7.124a31.49,31.49,0,0,1,14.784,11.554c5.844,8.05,8.77,17.211,10.234,26.9a81.314,81.314,0,0,1-.4,26.89,119.2,119.2,0,0,1-4.733,16.434,94.874,94.874,0,0,0-3.126,11.346,21.634,21.634,0,0,0,.923,10.795,65.236,65.236,0,0,0,4.021,9.747,19.353,19.353,0,0,1,1.493,4.684c.486,2.361-.747,4.379-3.529,6.057a33.354,33.354,0,0,1-5.117,2.323c-2.448.963-2.721,1.5-2.162,4.016.213.981.426,1.965.6,2.951a4.019,4.019,0,0,1-1.175,3.89,7.855,7.855,0,0,0-2.313,4.4,5.99,5.99,0,0,1-3.243,4.226c-5.046,2.6-8.3,6.956-11.336,11.5a10.859,10.859,0,0,1-9.345,5.074,48.759,48.759,0,0,1-13.518-2.025c-4.209-1.107-8.1-3.16-12.384-4.02a11.518,11.518,0,0,0-5.569.087,7.436,7.436,0,0,0-5.624,7,50.583,50.583,0,0,0,1.42,14.265,7.264,7.264,0,0,1,.213,1.346c.03.566-.03,1.156-.772,1.228a1.206,1.206,0,0,1-1.362-.9,33.35,33.35,0,0,1-1.173-5.35,59.987,59.987,0,0,1-.654-9.973,10.643,10.643,0,0,1,2.522-7.084,9.924,9.924,0,0,1,6.138-3.076,17.633,17.633,0,0,1,9.147,1.243,69.172,69.172,0,0,0,18.786,4.925c4.731.426,8.676-.719,11.128-5.255A30.393,30.393,0,0,1,230.237,282a27.043,27.043,0,0,1,3.358-2.114,4.94,4.94,0,0,0,2.456-3.3,8.565,8.565,0,0,1,2.495-4.782,2.982,2.982,0,0,0,.754-3.258,20.076,20.076,0,0,1-.746-3.755,4.01,4.01,0,0,1,2.132-3.856,17.109,17.109,0,0,1,3.51-1.552,14.344,14.344,0,0,0,4.386-2.491,2.658,2.658,0,0,0,1.019-2.785c-.478-2.8-1.951-5.2-3.032-7.76-2.047-4.846-4.03-9.745-3.738-15.161a42.729,42.729,0,0,1,1.885-9.1c1.606-5.765,3.919-11.314,5.331-17.135a77.493,77.493,0,0,0,2.019-25.293,72.845,72.845,0,0,0-4.667-20.78c-2.454-6.129-5.793-11.729-10.827-16.144-5.224-4.584-11.281-7.045-18.283-6.174-5.392.662-9.439,3.741-12.428,8.214a23.282,23.282,0,0,0-3.1,7.713,2.414,2.414,0,0,0,.917,2.768,37.9,37.9,0,0,1,6.287,6.106,4.3,4.3,0,0,0,1.61,1.013c5.059,2.467,9.5,5.725,12.632,10.466a24.043,24.043,0,0,1,3.714,15.432c-.659,9.18-4.559,17.13-9.339,24.746a94.057,94.057,0,0,1-13.507,17.063c-.921.907-.341,1.392.286,1.99a38.446,38.446,0,0,1,8.833,11.944c2.3,5.095,3.222,10.373,1.442,15.857-.322.994-.783,1.944-1.179,2.914q-1.573,1.978-3.151,3.952Zm-61.354-39v.047a2.031,2.031,0,0,0,.892,1.277.572.572,0,0,0,.373.556,14.9,14.9,0,0,0,2.409,2.962c.426.468.727.473.951-.213a65.241,65.241,0,0,0,2.211-8.046c.19-.975-.247-1.045-.976-.638l-.84.111a32.236,32.236,0,0,0-5.431.377c-.465.06-1.145-.213-1.328.371a1.246,1.246,0,0,0,.621,1.277,1.048,1.048,0,0,0,.413.785,1.277,1.277,0,0,0,.706,1.135Zm-24.6-67.219a3.123,3.123,0,0,0-.407,1.7c-.019.456-.527,1.293.371,1.277.825,0,1.957.277,2.439-.743a4.457,4.457,0,0,0-1.742-5.961,7.349,7.349,0,0,0-.461,2.253A2.217,2.217,0,0,0,125.3,160.581Zm23.69,17.533c.512.624,1.207.613,2.051.69-.326-.638-.537-1.13-1.066-1.39-.192-1.162-1.125-1.853-1.778-2.711-.39-.515-.776-1.49-1.4-1.3-.693.213-.906,1.18-1.164,1.916a.907.907,0,0,0,.362,1.186A8.8,8.8,0,0,0,148.987,178.114Zm-21.776,8.77a21.877,21.877,0,0,0,1.546,3.7c-.089-1.154-.157-2.008-.213-2.861a6.109,6.109,0,0,0-.465-2.625c.282-1.669-.213-3.27-.426-4.9a4.416,4.416,0,0,0-.049-1.976c-.243-3.832-.311-7.652-.232-11.482,0-.426-.043-.8-.593-.922a1.828,1.828,0,0,0-2.313,1.7A49.227,49.227,0,0,0,127.211,186.884Zm66.23,83.886a23.7,23.7,0,0,0,11.884-2.8c7.675-4.028,10.413-10.835,8.227-18.989-1.688-6.291-5.484-11.284-10.181-15.653-.791-.739-1.279-.458-1.961.117-5.714,4.806-12.023,8.5-19.456,9.913a2.706,2.706,0,0,0-2.3,2.116,46.942,46.942,0,0,0-2.346,9.581c-.782,6.577,1.806,11.923,8.339,14.358A20.37,20.37,0,0,0,193.441,270.77Zm-158-14.656a18.393,18.393,0,0,0,.936,5.195c.273.969.785,1.331,1.81,1.022a26.72,26.72,0,0,0,9.292-4.56c2.883-2.325,5.117-5.093,5.622-8.915a6.48,6.48,0,0,0-7.168-7.4,10.553,10.553,0,0,0-7.424,4.19C36.245,248.487,35.5,251.829,35.439,256.113Zm149.713-97.32a39.726,39.726,0,0,0-6.315.191,1.45,1.45,0,0,0-1.39,1.064,45.08,45.08,0,0,1-4.021,7.78c-4.13,6.262-8.893,11.786-16.656,13.581-1.179.272-1.236.739-.831,1.669a53.781,53.781,0,0,1,3.484,11.518c.277,1.467.853,1.346,1.9,1.043a27.067,27.067,0,0,1,12.889-.7,18.625,18.625,0,0,1,10.771,5.8,16.462,16.462,0,0,1,3.91,8.459c.277,1.64.314,1.676,1.689.92a62.348,62.348,0,0,0,8.58-5.65,2.5,2.5,0,0,0,.951-1.744c.908-6.879.627-13.779.254-20.667-.367-6.747-1.01-13.481-.868-20.248.019-.877-.228-1.307-1.158-1.49A79.907,79.907,0,0,0,185.151,158.793Zm28.464,7.322c-.019.241-.058.338-.03.411.107.251.235.494.352.741a25.51,25.51,0,0,1-1.367,26.121,46.682,46.682,0,0,1-9.613,11,3.451,3.451,0,0,0-1.175,1.929c-1.518,6.413-4.921,11.043-11.842,12.272a1.578,1.578,0,0,0-1.45,1.541c-.115,1.007.591,1.239,1.254,1.525a52.213,52.213,0,0,1,11.513,6.871,1.513,1.513,0,0,0,2.418-.213c1.943-2.006,3.838-4.058,5.573-6.238,6.045-7.571,11.407-15.553,14.526-24.827,1.989-5.91,2.81-11.951.915-18.029C222.871,173.373,218.9,169.223,213.615,166.115Zm-91.632,4.022v-.96c.068-2.231,0-2.254-1.981-1.318a38.864,38.864,0,0,0-14.3,12.119,61.278,61.278,0,0,0-10.021,20.584,2.435,2.435,0,0,0,.657,2.5,47.262,47.262,0,0,0,9.268,8.3,60.868,60.868,0,0,0,22.43,9.155c2.3.445,2.444.871,2.54-2.04.213-6.453-.465-12.868-.865-19.3a6.67,6.67,0,0,0-.815-3.155C124.13,188.049,122.16,179.332,121.984,170.137Zm-28.526,28.8c.482-.254.486-.671.584-.992a63.2,63.2,0,0,1,6.94-15.159c5-7.952,11.32-14.439,20.255-17.956a1.6,1.6,0,0,0,1.1-1.39,63.589,63.589,0,0,1,1.539-8.059,2.016,2.016,0,0,0-.639-2.108,33.491,33.491,0,0,0-5.381-4.663c-4.1-2.791-8.528-4.015-13.39-2.385-6,2.016-10.01,6.387-12.792,11.793-5.942,11.531-6.051,23.394-1.292,35.36A24.547,24.547,0,0,0,93.458,198.941Zm1.388,6.044a10.444,10.444,0,0,0-.878,3.407,59.942,59.942,0,0,0,.823,24.484c1.578,6.1,4.051,11.755,8.727,16.2a13.2,13.2,0,0,0,8.494,4,11.727,11.727,0,0,0,8.925-3.517c3.411-3.194,5.381-7.2,6.787-11.57a61.323,61.323,0,0,0,2.426-12.753c.081-.809.521-1.916-.928-2.167-1.394-.249-2.787-.524-4.162-.852a60.862,60.862,0,0,1-23.867-11.263A68.726,68.726,0,0,1,94.846,204.985Zm63.394-65.326c2.009.117,4.021.213,6.027.358a70.481,70.481,0,0,1,12.774,2.376c1.3.343,1.414-.213,1.311-1.2a31.872,31.872,0,0,0-1.279-6.711c-2.574-7.826-8.315-12.606-16.8-12.572-6.281.028-11.771,2.5-16.643,6.277-8.049,6.251-13.255,14.478-16.432,24.084a2.381,2.381,0,0,0,.488,2.636c.4.426.678,1.207,1.251,1.164.64-.049.64-.9.853-1.422A20.993,20.993,0,0,1,142,142.4,41.364,41.364,0,0,1,158.24,139.659Zm24.11,101.269a4.4,4.4,0,0,0,1.949-.487,42.367,42.367,0,0,0,15.351-8.506c.789-.667.853-1.15,0-1.8a58.588,58.588,0,0,0-10.565-6.321c-.921-.426-1.364-.3-1.663.745-.6,2.059-1.265,4.1-2.011,6.113-1.175,3.164-2.433,6.3-3.672,9.438C181.482,240.734,181.5,241.1,182.35,240.928Zm-23.865-99.015a51.989,51.989,0,0,0-11.479,1.25c-6.976,1.725-12.277,5.444-15.11,12.3-.966,2.342-1.1,4.309.853,6.174.829.794,1.249,1.946,2.618,2.214a23.947,23.947,0,0,1,10.047,4.846c.77.594,1.211.458,1.821-.213a31.421,31.421,0,0,1,11.812-7.775,60.712,60.712,0,0,1,16.106-3.8c.584-.066,1.049-.213,1.254-.852a46.037,46.037,0,0,0,1.919-9.655,1.306,1.306,0,0,0-1.085-1.591A75.834,75.834,0,0,0,158.485,141.914Zm-15.972,35.768c.213-.649-.349-1.156-.9-1.654a43.616,43.616,0,0,1-4.793-5.086c-1.145-1.424-2.273-2.866-3.33-4.352a2.694,2.694,0,0,0-2.942-.979c-1.081.191-.755,1.237-.774,1.944-.051,2.148-.06,4.3,0,6.445.2,7.133,1.279,14.19,1.828,21.291a3.09,3.09,0,0,0,.524,1.537,38.018,38.018,0,0,0,12.1,11.359c.945.56,1.412.264,1.77-.607a17.6,17.6,0,0,1,3.256-4.72c2.04-2.342,2.074-2.3.117-4.791-4.643-5.925-7.885-12.329-6.855-20.392Zm33.344,64.059c.333-.015.972-.053,1.612-.068a1.543,1.543,0,0,0,1.544-1.116c2.115-5.634,4.69-11.092,6.3-16.92.237-.864.089-1.4-.81-1.682-1.962-.611-3.887-1.36-5.878-1.835-1.341-.321-2.667-1.009-4.141-.558a130.22,130.22,0,0,1-13.972,3.406,1.5,1.5,0,0,0-1.39,1.378,69.021,69.021,0,0,1-2.524,9.231,1.753,1.753,0,0,0,.815,2.389,33.016,33.016,0,0,0,18.445,5.768Zm26.961-40.578a10.565,10.565,0,0,0,.957-.709,39.236,39.236,0,0,0,6.364-7.522,26.842,26.842,0,0,0,4.164-10.645c.938-6.722-1.1-12.629-4.947-18.042a2.043,2.043,0,0,0-1.017-.884c-1.746-.543-3.411-1.277-5.179-1.805-1.138-.337-1.279.036-1.309,1.013-.16,5.22.241,10.42.548,15.621.4,6.8,1.066,13.585.426,20.4C202.754,199.395,202.818,200.206,202.818,201.164Zm-33.18-4.42a31.58,31.58,0,0,0-8.315,1.239c-.889.256-1.465.638-1.113,1.769a7.809,7.809,0,0,1,.213,2.171c.019,2.444.187,4.8,2.985,5.823a1.775,1.775,0,0,1,.328.243,55.134,55.134,0,0,0,14.582,7.209,2.157,2.157,0,0,0,1.6.013c1.887-.824,3.768-1.661,5.672-2.442a1.785,1.785,0,0,0,1.211-2.142,14.651,14.651,0,0,0-3.5-8.325C179.589,198.17,174.717,196.968,169.638,196.744Zm-14.466-17.41a14.16,14.16,0,0,0,5.577-1.829c6.708-4.086,10.95-10.183,14-17.245.349-.809.143-.935-.657-.852a51.978,51.978,0,0,0-13.674,3.247c-4.286,1.7-8.268,3.858-11.426,7.328a1.329,1.329,0,0,0-.017,2.112,35.419,35.419,0,0,1,4.748,6.509A1.309,1.309,0,0,0,155.172,179.335ZM132.418,201.4c.354,6.33.5,12.623.4,18.923-.013.782.4,1.037,1.066,1.114,3.181.36,6.368.615,9.571.662.917.013,1.081-.451.91-1.229a18.915,18.915,0,0,1,0-8.806c.194-.766-.162-1.171-.776-1.546-1.207-.739-2.411-1.49-3.556-2.32A51.622,51.622,0,0,1,132.418,201.4Zm51.755-44.873A74.928,74.928,0,0,1,198.458,158c.426.085.9.311,1.179-.3a2.83,2.83,0,0,0-.968-3.33,57.859,57.859,0,0,0-8.855-4.91,76.41,76.41,0,0,0-8.012-3.193c-.761-.245-1.241-.186-1.256.781a34.345,34.345,0,0,1-1.493,8.191c-.23.873-.154,1.311.853,1.294C181.339,156.508,182.757,156.528,184.173,156.528Zm-39.606,24.631h-.045c.073.638.124,1.277.213,1.9a28.286,28.286,0,0,0,6.437,13.564c2.247,2.789,2.275,2.733,5.33.871a1.483,1.483,0,0,0,.8-1.787,59.681,59.681,0,0,0-3.9-12.664,2.693,2.693,0,0,0-2.1-1.716,14.533,14.533,0,0,1-4.512-1.567c-.578-.343-1.228-1.064-1.8-.775-.668.351-.35,1.322-.427,2.029C144.564,181.067,144.567,181.121,144.567,181.159Zm30.346,35.611a89.522,89.522,0,0,1-12.718-7.013c-1.162-.807-1.333-.683-1.424.684-.043.638-.041,1.277-.079,1.916-.1,1.719.066,1.916,1.756,2.2,2.066.358,4.126.762,6.183,1.128S172.822,216.41,174.913,216.77Zm-28.726.164a16.3,16.3,0,0,0,.456,3.877c.134.792.557,1.25,1.407,1.135,2.043-.277,4.115-.1,6.153-.466,3.477-.639,3.625-.816,3.731-4.486a1.135,1.135,0,0,0-1.006-1.348,44.791,44.791,0,0,1-9.356-3.085c-.753-.347-.966.024-1.139.639A16.445,16.445,0,0,0,146.187,216.934Zm12.236-7.071c-.339-.954.488-2.359-.678-3.4-1.263-1.124-2.559-2.206-3.8-3.362a1.017,1.017,0,0,0-1.637-.017,20.284,20.284,0,0,0-4.367,5.582c-.446.922-.213,1.38.68,1.8a47.6,47.6,0,0,0,8.431,2.859c.9.236,1.279-.123,1.262-1.033C158.306,211.566,158.377,210.842,158.423,209.863Zm30.828,4.84c-.042.852-.324,1.793.951,1.5a10.434,10.434,0,0,0,7.283-5.271c.252-.471.789-1.065.177-1.6-.555-.479-1.136-.028-1.636.256-1.859,1.064-3.675,2.2-5.558,3.219-.874.479-1.346,1.052-1.218,1.9Zm-19.743,3.491c-2.09-.4-4.187-.768-6.268-1.216-2.876-.615-3.066-.464-3.2,2.515-.038.852.266,1.064,1.025.949a34.908,34.908,0,0,0,8.441-2.242ZM136.56,166.665a36.574,36.574,0,0,0,5.331,6.434c1.373,1.356,1.4,1.35,2.33-.341.3-.554,1.019-1.139.232-1.8A19.38,19.38,0,0,0,136.56,166.665ZM158.125,203.5a6.891,6.891,0,0,0-.171-2.516c-.234-1.446-.4-1.5-1.667-.775-.915.523-1.045,1.064-.213,1.76a9.157,9.157,0,0,0,2.051,1.533Zm25.888,12.63a3.025,3.025,0,0,0,1.936.466.693.693,0,0,0,.274-.017.685.685,0,0,0,.245-.123.676.676,0,0,0,.178-.209.691.691,0,0,0,.081-.262c.058-.315.139-.694-.119-.909s-.612.037-.887.164c-.557.262-1.089.568-1.708.892Zm20.848-56.769c-.714-.651-1.239-1.195-1.836-1.643-.245-.183-.659-.807-.944-.147-.182.426-.38,1.154.388,1.369a5.78,5.78,0,0,0,2.392.423Zm-22.575,59.235c.831.338,1.654.694,2.5,1,.405.151.827.457,1.279.151a.51.51,0,0,0,.132-.473c-.237-.543-.77-.347-1.188-.387A10,10,0,0,1,182.286,218.592Z" transform="translate(0 -60.585)" fill="#222221"/>
      <path id="Path_3" data-name="Path 3" d="M260.109,21.186c1.158.377,1.576,1.613,1.576,3.414a19.876,19.876,0,0,1-.173,2.385c1.251-2.353,2.795-3.831,4.666-3.831a3.918,3.918,0,0,1,1.089.159c.9.26,1.336,1.068,1.336,2.309a13.6,13.6,0,0,1-1.343,5.026,34.587,34.587,0,0,0-1.811,5.224,11.607,11.607,0,0,0-.389,2.693c0,.478.063.772.159.813a.462.462,0,0,0,.175.033c1.013,0,3.022-2.752,4.2-4.917,1.081-1.991,2.234-4.644,2.549-5.4a.743.743,0,0,1,.656-.423.347.347,0,0,1,.276.1.349.349,0,0,1,.083.125.354.354,0,0,1,.022.148,28.135,28.135,0,0,1-2.268,5.6c-1.307,2.67-3.553,6.1-5.835,6.1a2.236,2.236,0,0,1-.745-.128c-1.237-.432-1.989-1.609-1.989-3.623a10.752,10.752,0,0,1,.159-1.752,29.5,29.5,0,0,1,1.47-5.45c.887-2.357,1.738-4.159,1.738-4.94a.414.414,0,0,0-.145-.373.559.559,0,0,0-.147-.02c-1.189,0-3.2,3.547-3.543,4.354-.537,1.219-1.31,3.291-1.39,3.49-.115.419-.222.766-.3.968a.535.535,0,0,1-.546.336,2.365,2.365,0,0,1-2.05-1.974c0-.7.318-2.155.452-3.3.259-2.192.554-3.947.554-4.984,0-.507-.071-.839-.254-.96a.562.562,0,0,0-.152-.021c-1.234,0-3.321,3.678-3.674,4.515a22.772,22.772,0,0,0-1.868,6.717,14.744,14.744,0,0,0,.174,2.644.951.951,0,0,1,.031.247.989.989,0,0,1-1.055.954c-.657,0-1.494-.495-2.127-1.868A12.944,12.944,0,0,1,249,31.11c0-.48.016-.96.045-1.435a16.334,16.334,0,0,1,1.28-5.68,2.121,2.121,0,0,1,1.755-1.232h.036A1.411,1.411,0,0,1,253.6,24a.845.845,0,0,1-.048.282,13.79,13.79,0,0,0-.542,2.67l.048-.116c1.378-3.367,3.411-5.826,5.829-5.841a3.854,3.854,0,0,1,1.227.186Z" transform="translate(-126.059 -10.639)" fill="#222221"/>
      <path id="Path_4" data-name="Path 4" d="M299.747,22.575a1,1,0,0,1-.1.409c-.259.57-.949,2.093-1.583,3.872a18.408,18.408,0,0,0-1.251,5.565,3.136,3.136,0,0,0,.525,1.973.519.519,0,0,0,.2.146.544.544,0,0,0,.244.043c.817,0,2.335-1.164,3.674-2.936a20.517,20.517,0,0,0,2.091-3.6.876.876,0,0,1,.766-.577.525.525,0,0,1,.364.127.479.479,0,0,1,.166.335.268.268,0,0,1,0,.029,12.1,12.1,0,0,1-2.382,4.5,10.473,10.473,0,0,1-4.227,3.5,4.234,4.234,0,0,1-1.464.278,3.661,3.661,0,0,1-3.583-3.005A7.8,7.8,0,0,1,293,31.46a16.466,16.466,0,0,1,.68-4.348,12.837,12.837,0,0,1,2.012-4.272,3.513,3.513,0,0,1,1.815-1.183,3.376,3.376,0,0,1,.638-.061C299.035,21.6,299.747,21.966,299.747,22.575Zm.314-4.859a1.792,1.792,0,0,1,.2.837,1.362,1.362,0,0,1-1.3,1.472h-.166A1.4,1.4,0,0,1,297.22,18.6a1.571,1.571,0,0,1,.25-.868,1.533,1.533,0,0,1,1.278-.73,1.549,1.549,0,0,1,1.318.716Z" transform="translate(-148.349 -8.612)" fill="#222221"/>
      <path id="Path_5" data-name="Path 5" d="M326.125,21.211a2.345,2.345,0,0,1,1.7,2.471,17.339,17.339,0,0,1-1.666,5.759,32.651,32.651,0,0,0-2.211,6.986,16.747,16.747,0,0,0-.319,2.765c0,.714.13.964.255,1.021a.354.354,0,0,0,.159.034c.573,0,1.968-.966,3.921-4.63a64.826,64.826,0,0,0,2.762-6.707.776.776,0,0,1,.272-.323.722.722,0,0,1,.392-.125c.252,0,.452.17.367.559A32.993,32.993,0,0,1,329.58,35c-1.626,3.412-3.794,6.721-5.928,6.721a2.052,2.052,0,0,1-.593-.088c-1.317-.4-2.224-2-2.224-4.592q0-.616.063-1.23a32.73,32.73,0,0,1,1.9-7.74c.9-2.5,1.759-4.42,1.759-5.254a.451.451,0,0,0-.147-.395.674.674,0,0,0-.189-.027c-1.168,0-2.814,2.874-3.544,4.632-.572,1.378-2.245,6.1-2.322,7.75A9.507,9.507,0,0,0,318.5,36.3a1.017,1.017,0,0,1,.029.238.927.927,0,0,1-.968.919c-.6,0-1.37-.476-1.95-1.8A13.039,13.039,0,0,1,315,31.369c0-.462.015-.924.042-1.382a16.541,16.541,0,0,1,1.168-5.468,1.942,1.942,0,0,1,1.608-1.186h.033a1.315,1.315,0,0,1,1.355,1.195.818.818,0,0,1-.044.272,20.548,20.548,0,0,0-.668,4.35c.234-.725.487-1.463.76-2.162,1.344-3.455,3.33-5.975,5.688-5.988a3.582,3.582,0,0,1,1.182.211Z" transform="translate(-159.495 -10.639)" fill="#222221"/>
      <path id="Path_6" data-name="Path 6" d="M362.469,3.019a19.618,19.618,0,0,1-.586,4.3,66.429,66.429,0,0,1-4.527,11.406c-.021.654-.033,1.3-.033,1.939,0,4.316.5,7.982,1.587,8.02h.019c1.124,0,2.98-3.109,4.348-6.139.846-1.875,1.488-3.716,1.754-4.4.144-.368,1.3-.449,1.192-.068a44.491,44.491,0,0,1-1.816,5.027c-1.48,3.445-3.288,6.99-5.9,6.99a3.059,3.059,0,0,1-.66-.074c-1.779-.395-2.895-2.755-3.474-5.666-1.222,1.864-2.835,3.538-4.69,3.538h-.076c-2.093-.052-3.612-2.218-3.612-5.282a11.93,11.93,0,0,1,1.26-5.122c1.308-2.723,3.221-3.621,4.795-3.621a3.535,3.535,0,0,1,2.125.657c.791-6.586,3.077-12.716,5.558-14.149a2.392,2.392,0,0,1,1.18-.38C361.927,0,362.469,1.081,362.469,3.019ZM350.245,18.262a11.959,11.959,0,0,0-1.011,4.926c0,1.534.3,2.841.927,3.254,1.186.01,2.7-1.969,3.91-4.121a29.542,29.542,0,0,1-.177-3.242c0-.267,0-.532.011-.793.016-.628.05-1.259.1-1.888-.152-.546-.475-.8-.9-.8C352.25,15.6,351.046,16.632,350.245,18.262Zm7.4-3.541a47.272,47.272,0,0,0,2.725-7.568,20.941,20.941,0,0,0,.752-4.735,3.363,3.363,0,0,0-.147-1.131c-.506.144-2.553,6.253-3.331,13.434Z" transform="translate(-175.199)" fill="#222221"/>
      <path id="Path_7" data-name="Path 7" d="M390.213,29.344a2.114,2.114,0,0,1,1.118,1.943,5.212,5.212,0,0,1-2.431,3.959,4.854,4.854,0,0,1-2.235.606c-.04.437-.061.881-.061,1.317,0,2.384.634,4.57,2.163,4.658,1.455-.264,3.708-2.63,5.272-5.233a22.233,22.233,0,0,0,1.6-2.909.519.519,0,0,1,.216-.251.565.565,0,0,1,.332-.079c.31,0,.627.164.627.344a.153.153,0,0,1-.008.049,15.252,15.252,0,0,1-1.28,2.793c-1.587,2.918-4.372,6.767-7.273,6.767a3.1,3.1,0,0,1-.34-.018C384.266,42.9,383,39.738,383,36.769A9.576,9.576,0,0,1,383.732,33c1.326-2.973,3.408-4,5.02-4a3.031,3.031,0,0,1,1.461.344Zm-2.1,2.1a6.849,6.849,0,0,0-1.3,3.3,2.787,2.787,0,0,0,1.813-1.05,3.607,3.607,0,0,0,.96-2.256c0-.4-.133-.684-.41-.693-.237,0-.594.192-1.065.7Z" transform="translate(-193.943 -14.691)" fill="#222221"/>
      <path id="Path_8" data-name="Path 8" d="M406.962,21.013a2.475,2.475,0,0,1,2.131,2.239,3.539,3.539,0,0,1,.067.7,7.862,7.862,0,0,1-1.2,3.629,9.219,9.219,0,0,1,1.051-.055c1.292,0,3.406.24,4.169,1.714a2.922,2.922,0,0,1,.291,1.353c0,1.736-1.039,4.012-1.824,6.182a8.575,8.575,0,0,0-.609,2.643c0,.36.076.579.2.65a.532.532,0,0,0,.228.048c.667,0,1.783-.964,2.608-2.073a36.2,36.2,0,0,0,4.551-8.913.754.754,0,0,1,.7-.488c.248,0,.456.133.456.387,0,1.943-2.893,7.418-4.774,9.756-.342.421-2.248,2.938-4.289,2.938a2.488,2.488,0,0,1-1.6-.6,3.479,3.479,0,0,1-.932-2.788,16,16,0,0,1,.333-2.936c.482-2.5,1.247-4.665,1.247-5.485,0-.179-.036-.293-.121-.333a1.125,1.125,0,0,0-.465-.075c-.342,0-.788.065-1.288.065a3.762,3.762,0,0,1-2.85-1.191A4.255,4.255,0,0,1,404,25.437a6.4,6.4,0,0,1,.505-2.418A3.111,3.111,0,0,1,406.873,21ZM406.2,24.9a5.452,5.452,0,0,0,.441,2.078,6.646,6.646,0,0,0,.819-3.219c0-.625-.136-1.111-.508-1.179A3.589,3.589,0,0,0,406.2,24.9Z" transform="translate(-204.582 -10.639)" fill="#222221"/>
    </g>
  </g>
</svg>
