<svg width="30" height="30" viewBox="0 0 30 30" fill="none" xmlns="http://www.w3.org/2000/svg">
<g opacity="0.8">
<path d="M26.25 15.125C26.25 15.8238 25.7101 16.3907 25.0446 16.3907H7.96363L14.6268 23.0683C15.1102 23.5512 15.1275 24.3554 14.6677 24.858C14.2078 25.364 13.445 25.3821 12.9631 24.9009L4.12352 16.0413C3.885 15.8023 3.75 15.4711 3.75 15.125C3.75 14.779 3.885 14.4477 4.12357 14.2087L12.9632 5.34911C13.445 4.86789 14.2078 4.88603 14.6677 5.39193C15.1275 5.89292 15.1103 6.69714 14.6269 7.18168L7.96363 13.8593H25.0446C25.7101 13.8593 26.25 14.4263 26.25 15.125Z" fill="black"/>
</g>
</svg>
